<?xml version="1.0" encoding="utf-8"?>
<!-- Generator: Adobe Illustrator 16.0.0, SVG Export Plug-In . SVG Version: 6.00 Build 0)  -->
<!DOCTYPE svg PUBLIC "-//W3C//DTD SVG 1.1//EN" "http://www.w3.org/Graphics/SVG/1.1/DTD/svg11.dtd">
<svg version="1.1" id="Layer_1" xmlns="http://www.w3.org/2000/svg" xmlns:xlink="http://www.w3.org/1999/xlink" x="0px" y="0px"
	 width="1122px" height="242px" viewBox="0 0 1122 242" enable-background="new 0 0 1122 242" xml:space="preserve">
<g>
	<path fill="#FDFCFB" d="M1120,238c0,1.1-0.9,2-2,2h-14c-1.1,0-2-0.9-2-2v-14c0-1.1,0.9-2,2-2h14c1.1,0,2,0.9,2,2V238z"/>
</g>
<g>
	<path fill="#FDFCFB" d="M1098,238c0,1.1-0.9,2-2,2h-14c-1.1,0-2-0.9-2-2v-14c0-1.1,0.9-2,2-2h14c1.1,0,2,0.9,2,2V238z"/>
</g>
<g>
	<path fill="#FDFCFB" d="M1076,238c0,1.1-0.9,2-2,2h-14c-1.1,0-2-0.9-2-2v-14c0-1.1,0.9-2,2-2h14c1.1,0,2,0.9,2,2V238z"/>
</g>
<g>
	<path fill="#FDFCFB" d="M1054,238c0,1.1-0.9,2-2,2h-14c-1.1,0-2-0.9-2-2v-14c0-1.1,0.9-2,2-2h14c1.1,0,2,0.9,2,2V238z"/>
</g>
<g>
	<path fill="#FDFCFB" d="M1032,238c0,1.1-0.9,2-2,2h-14c-1.1,0-2-0.9-2-2v-14c0-1.1,0.9-2,2-2h14c1.1,0,2,0.9,2,2V238z"/>
</g>
<g>
	<path fill="#FDFCFB" d="M1010,238c0,1.1-0.9,2-2,2h-14c-1.1,0-2-0.9-2-2v-14c0-1.1,0.9-2,2-2h14c1.1,0,2,0.9,2,2V238z"/>
</g>
<g>
	<path fill="#FDFCFB" d="M988,238c0,1.1-0.9,2-2,2h-14c-1.1,0-2-0.9-2-2v-14c0-1.1,0.9-2,2-2h14c1.1,0,2,0.9,2,2V238z"/>
</g>
<g>
	<path fill="#FDFCFB" d="M966,238c0,1.1-0.9,2-2,2h-14c-1.1,0-2-0.9-2-2v-14c0-1.1,0.9-2,2-2h14c1.1,0,2,0.9,2,2V238z"/>
</g>
<g>
	<path fill="#FDFCFB" d="M944,238c0,1.1-0.9,2-2,2h-14c-1.1,0-2-0.9-2-2v-14c0-1.1,0.9-2,2-2h14c1.1,0,2,0.9,2,2V238z"/>
</g>
<g>
	<path fill="#FDFCFB" d="M922,238c0,1.1-0.9,2-2,2h-14c-1.1,0-2-0.9-2-2v-14c0-1.1,0.9-2,2-2h14c1.1,0,2,0.9,2,2V238z"/>
</g>
<g>
	<path fill="#FDFCFB" d="M900,238c0,1.1-0.9,2-2,2h-14c-1.1,0-2-0.9-2-2v-14c0-1.1,0.9-2,2-2h14c1.1,0,2,0.9,2,2V238z"/>
</g>
<g>
	<path fill="#FDFCFB" d="M878,238c0,1.1-0.9,2-2,2h-14c-1.1,0-2-0.9-2-2v-14c0-1.1,0.9-2,2-2h14c1.1,0,2,0.9,2,2V238z"/>
</g>
<g>
	<path fill="#FDFCFB" d="M856,238c0,1.1-0.9,2-2,2h-14c-1.1,0-2-0.9-2-2v-14c0-1.1,0.9-2,2-2h14c1.1,0,2,0.9,2,2V238z"/>
</g>
<g>
	<path fill="#FDFCFB" d="M834,238c0,1.1-0.9,2-2,2h-14c-1.1,0-2-0.9-2-2v-14c0-1.1,0.9-2,2-2h14c1.1,0,2,0.9,2,2V238z"/>
</g>
<g>
	<path fill="#FDFCFB" d="M812,238c0,1.1-0.9,2-2,2h-14c-1.1,0-2-0.9-2-2v-14c0-1.1,0.9-2,2-2h14c1.1,0,2,0.9,2,2V238z"/>
</g>
<g>
	<path fill="#FDFCFB" d="M790,238c0,1.1-0.9,2-2,2h-14c-1.1,0-2-0.9-2-2v-14c0-1.1,0.9-2,2-2h14c1.1,0,2,0.9,2,2V238z"/>
</g>
<g>
	<path fill="#FDFCFB" d="M768,238c0,1.1-0.9,2-2,2h-14c-1.1,0-2-0.9-2-2v-14c0-1.1,0.9-2,2-2h14c1.1,0,2,0.9,2,2V238z"/>
</g>
<g>
	<path fill="#FDFCFB" d="M746,238c0,1.1-0.9,2-2,2h-14c-1.1,0-2-0.9-2-2v-14c0-1.1,0.9-2,2-2h14c1.1,0,2,0.9,2,2V238z"/>
</g>
<g>
	<path fill="#FDFCFB" d="M724,238c0,1.1-0.9,2-2,2h-14c-1.1,0-2-0.9-2-2v-14c0-1.1,0.9-2,2-2h14c1.1,0,2,0.9,2,2V238z"/>
</g>
<g>
	<path fill="#FDFCFB" d="M702,238c0,1.1-0.9,2-2,2h-14c-1.1,0-2-0.9-2-2v-14c0-1.1,0.9-2,2-2h14c1.1,0,2,0.9,2,2V238z"/>
</g>
<g>
	<path fill="#FDFCFB" d="M680,238c0,1.1-0.9,2-2,2h-14c-1.1,0-2-0.9-2-2v-14c0-1.1,0.9-2,2-2h14c1.1,0,2,0.9,2,2V238z"/>
</g>
<g>
	<path fill="#FDFCFB" d="M658,238c0,1.1-0.9,2-2,2h-14c-1.1,0-2-0.9-2-2v-14c0-1.1,0.9-2,2-2h14c1.1,0,2,0.9,2,2V238z"/>
</g>
<g>
	<path fill="#FDFCFB" d="M636,238c0,1.1-0.9,2-2,2h-14c-1.1,0-2-0.9-2-2v-14c0-1.1,0.9-2,2-2h14c1.1,0,2,0.9,2,2V238z"/>
</g>
<g>
	<path fill="#FDFCFB" d="M614,238c0,1.1-0.9,2-2,2h-14c-1.1,0-2-0.9-2-2v-14c0-1.1,0.9-2,2-2h14c1.1,0,2,0.9,2,2V238z"/>
</g>
<g>
	<path fill="#FDFCFB" d="M592,238c0,1.1-0.9,2-2,2h-14c-1.1,0-2-0.9-2-2v-14c0-1.1,0.9-2,2-2h14c1.1,0,2,0.9,2,2V238z"/>
</g>
<g>
	<path fill="#FDFCFB" d="M570,238c0,1.1-0.9,2-2,2h-14c-1.1,0-2-0.9-2-2v-14c0-1.1,0.9-2,2-2h14c1.1,0,2,0.9,2,2V238z"/>
</g>
<g>
	<path fill="#FDFCFB" d="M548,238c0,1.1-0.9,2-2,2h-14c-1.1,0-2-0.9-2-2v-14c0-1.1,0.9-2,2-2h14c1.1,0,2,0.9,2,2V238z"/>
</g>
<g>
	<path fill="#FDFCFB" d="M526,238c0,1.1-0.9,2-2,2h-14c-1.1,0-2-0.9-2-2v-14c0-1.1,0.9-2,2-2h14c1.1,0,2,0.9,2,2V238z"/>
</g>
<g>
	<path fill="#FDFCFB" d="M504,238c0,1.1-0.9,2-2,2h-14c-1.1,0-2-0.9-2-2v-14c0-1.1,0.9-2,2-2h14c1.1,0,2,0.9,2,2V238z"/>
</g>
<g>
	<path fill="#FDFCFB" d="M482,238c0,1.1-0.9,2-2,2h-14c-1.1,0-2-0.9-2-2v-14c0-1.1,0.9-2,2-2h14c1.1,0,2,0.9,2,2V238z"/>
</g>
<g>
	<path fill="#FDFCFB" d="M460,238c0,1.1-0.9,2-2,2h-14c-1.1,0-2-0.9-2-2v-14c0-1.1,0.9-2,2-2h14c1.1,0,2,0.9,2,2V238z"/>
</g>
<g>
	<path fill="#FDFCFB" d="M438,238c0,1.1-0.9,2-2,2h-14c-1.1,0-2-0.9-2-2v-14c0-1.1,0.9-2,2-2h14c1.1,0,2,0.9,2,2V238z"/>
</g>
<g>
	<path fill="#FDFCFB" d="M416,238c0,1.1-0.9,2-2,2h-14c-1.1,0-2-0.9-2-2v-14c0-1.1,0.9-2,2-2h14c1.1,0,2,0.9,2,2V238z"/>
</g>
<g>
	<path fill="#FDFCFB" d="M394,238c0,1.1-0.9,2-2,2h-14c-1.1,0-2-0.9-2-2v-14c0-1.1,0.9-2,2-2h14c1.1,0,2,0.9,2,2V238z"/>
</g>
<g>
	<path fill="#FDFCFB" d="M372,238c0,1.1-0.9,2-2,2h-14c-1.1,0-2-0.9-2-2v-14c0-1.1,0.9-2,2-2h14c1.1,0,2,0.9,2,2V238z"/>
</g>
<g>
	<path fill="#FDFCFB" d="M350,238c0,1.1-0.9,2-2,2h-14c-1.1,0-2-0.9-2-2v-14c0-1.1,0.9-2,2-2h14c1.1,0,2,0.9,2,2V238z"/>
</g>
<g>
	<path fill="#FDFCFB" d="M328,238c0,1.1-0.9,2-2,2h-14c-1.1,0-2-0.9-2-2v-14c0-1.1,0.9-2,2-2h14c1.1,0,2,0.9,2,2V238z"/>
</g>
<g>
	<path fill="#FDFCFB" d="M306,238c0,1.1-0.9,2-2,2h-14c-1.1,0-2-0.9-2-2v-14c0-1.1,0.9-2,2-2h14c1.1,0,2,0.9,2,2V238z"/>
</g>
<g>
	<path fill="#FDFCFB" d="M284,238c0,1.1-0.9,2-2,2h-14c-1.1,0-2-0.9-2-2v-14c0-1.1,0.9-2,2-2h14c1.1,0,2,0.9,2,2V238z"/>
</g>
<g>
	<path fill="#FDFCFB" d="M262,238c0,1.1-0.9,2-2,2h-14c-1.1,0-2-0.9-2-2v-14c0-1.1,0.9-2,2-2h14c1.1,0,2,0.9,2,2V238z"/>
</g>
<g>
	<path fill="#FDFCFB" d="M240,238c0,1.1-0.9,2-2,2h-14c-1.1,0-2-0.9-2-2v-14c0-1.1,0.9-2,2-2h14c1.1,0,2,0.9,2,2V238z"/>
</g>
<g>
	<path fill="#FDFCFB" d="M218,238c0,1.1-0.9,2-2,2h-14c-1.1,0-2-0.9-2-2v-14c0-1.1,0.9-2,2-2h14c1.1,0,2,0.9,2,2V238z"/>
</g>
<g>
	<path fill="#FDFCFB" d="M196,238c0,1.1-0.9,2-2,2h-14c-1.1,0-2-0.9-2-2v-14c0-1.1,0.9-2,2-2h14c1.1,0,2,0.9,2,2V238z"/>
</g>
<g>
	<path fill="#FDFCFB" d="M174,238c0,1.1-0.9,2-2,2h-14c-1.1,0-2-0.9-2-2v-14c0-1.1,0.9-2,2-2h14c1.1,0,2,0.9,2,2V238z"/>
</g>
<g>
	<path fill="#FDFCFB" d="M152,238c0,1.1-0.9,2-2,2h-14c-1.1,0-2-0.9-2-2v-14c0-1.1,0.9-2,2-2h14c1.1,0,2,0.9,2,2V238z"/>
</g>
<g>
	<path fill="#FDFCFB" d="M130,238c0,1.1-0.9,2-2,2h-14c-1.1,0-2-0.9-2-2v-14c0-1.1,0.9-2,2-2h14c1.1,0,2,0.9,2,2V238z"/>
</g>
<g>
	<path fill="#FDFCFB" d="M108,238c0,1.1-0.9,2-2,2H92c-1.1,0-2-0.9-2-2v-14c0-1.1,0.9-2,2-2h14c1.1,0,2,0.9,2,2V238z"/>
</g>
<g>
	<path fill="#FDFCFB" d="M86,238c0,1.1-0.9,2-2,2H70c-1.1,0-2-0.9-2-2v-14c0-1.1,0.9-2,2-2h14c1.1,0,2,0.9,2,2V238z"/>
</g>
<g>
	<path fill="#FDFCFB" d="M64,238c0,1.1-0.9,2-2,2H48c-1.1,0-2-0.9-2-2v-14c0-1.1,0.9-2,2-2h14c1.1,0,2,0.9,2,2V238z"/>
</g>
<g>
	<path fill="#FDFCFB" d="M42,238c0,1.1-0.9,2-2,2H26c-1.1,0-2-0.9-2-2v-14c0-1.1,0.9-2,2-2h14c1.1,0,2,0.9,2,2V238z"/>
</g>
<g>
	<path fill="#FDFCFB" d="M20,238c0,1.1-0.9,2-2,2H4c-1.1,0-2-0.9-2-2v-14c0-1.1,0.9-2,2-2h14c1.1,0,2,0.9,2,2V238z"/>
</g>
<g>
	<path fill="#FDFCFB" d="M1120,216c0,1.1-0.9,2-2,2h-14c-1.1,0-2-0.9-2-2v-14c0-1.1,0.9-2,2-2h14c1.1,0,2,0.9,2,2V216z"/>
</g>
<g>
	<path fill="#FDFCFB" d="M1098,216c0,1.1-0.9,2-2,2h-14c-1.1,0-2-0.9-2-2v-14c0-1.1,0.9-2,2-2h14c1.1,0,2,0.9,2,2V216z"/>
</g>
<g>
	<path fill="#FDFCFB" d="M1076,216c0,1.1-0.9,2-2,2h-14c-1.1,0-2-0.9-2-2v-14c0-1.1,0.9-2,2-2h14c1.1,0,2,0.9,2,2V216z"/>
</g>
<g>
	<path fill="#FDFCFB" d="M1054,216c0,1.1-0.9,2-2,2h-14c-1.1,0-2-0.9-2-2v-14c0-1.1,0.9-2,2-2h14c1.1,0,2,0.9,2,2V216z"/>
</g>
<g>
	<path fill="#FDFCFB" d="M1032,216c0,1.1-0.9,2-2,2h-14c-1.1,0-2-0.9-2-2v-14c0-1.1,0.9-2,2-2h14c1.1,0,2,0.9,2,2V216z"/>
</g>
<g>
	<path fill="#FDFCFB" d="M1010,216c0,1.1-0.9,2-2,2h-14c-1.1,0-2-0.9-2-2v-14c0-1.1,0.9-2,2-2h14c1.1,0,2,0.9,2,2V216z"/>
</g>
<g>
	<path fill="#FDFCFB" d="M988,216c0,1.1-0.9,2-2,2h-14c-1.1,0-2-0.9-2-2v-14c0-1.1,0.9-2,2-2h14c1.1,0,2,0.9,2,2V216z"/>
</g>
<g>
	<path fill="#FDFCFB" d="M966,216c0,1.1-0.9,2-2,2h-14c-1.1,0-2-0.9-2-2v-14c0-1.1,0.9-2,2-2h14c1.1,0,2,0.9,2,2V216z"/>
</g>
<g>
	<path fill="#FDFCFB" d="M944,216c0,1.1-0.9,2-2,2h-14c-1.1,0-2-0.9-2-2v-14c0-1.1,0.9-2,2-2h14c1.1,0,2,0.9,2,2V216z"/>
</g>
<g>
	<path fill="#FDFCFB" d="M922,216c0,1.1-0.9,2-2,2h-14c-1.1,0-2-0.9-2-2v-14c0-1.1,0.9-2,2-2h14c1.1,0,2,0.9,2,2V216z"/>
</g>
<g>
	<path fill="#FDFCFB" d="M900,216c0,1.1-0.9,2-2,2h-14c-1.1,0-2-0.9-2-2v-14c0-1.1,0.9-2,2-2h14c1.1,0,2,0.9,2,2V216z"/>
</g>
<g>
	<path fill="#FDFCFB" d="M878,216c0,1.1-0.9,2-2,2h-14c-1.1,0-2-0.9-2-2v-14c0-1.1,0.9-2,2-2h14c1.1,0,2,0.9,2,2V216z"/>
</g>
<g>
	<path fill="#FDFCFB" d="M856,216c0,1.1-0.9,2-2,2h-14c-1.1,0-2-0.9-2-2v-14c0-1.1,0.9-2,2-2h14c1.1,0,2,0.9,2,2V216z"/>
</g>
<g>
	<path fill="#FDFCFB" d="M834,216c0,1.1-0.9,2-2,2h-14c-1.1,0-2-0.9-2-2v-14c0-1.1,0.9-2,2-2h14c1.1,0,2,0.9,2,2V216z"/>
</g>
<g>
	<path fill="#F3F4F2" d="M812,216c0,1.1-0.9,2-2,2h-14c-1.1,0-2-0.9-2-2v-14c0-1.1,0.9-2,2-2h14c1.1,0,2,0.9,2,2V216z"/>
</g>
<g>
	<path fill="#FDFCFB" d="M790,216c0,1.1-0.9,2-2,2h-14c-1.1,0-2-0.9-2-2v-14c0-1.1,0.9-2,2-2h14c1.1,0,2,0.9,2,2V216z"/>
</g>
<g>
	<path fill="#FDFCFB" d="M768,216c0,1.1-0.9,2-2,2h-14c-1.1,0-2-0.9-2-2v-14c0-1.1,0.9-2,2-2h14c1.1,0,2,0.9,2,2V216z"/>
</g>
<g>
	<path fill="#FDFCFB" d="M746,216c0,1.1-0.9,2-2,2h-14c-1.1,0-2-0.9-2-2v-14c0-1.1,0.9-2,2-2h14c1.1,0,2,0.9,2,2V216z"/>
</g>
<g>
	<path fill="#FDFCFB" d="M724,216c0,1.1-0.9,2-2,2h-14c-1.1,0-2-0.9-2-2v-14c0-1.1,0.9-2,2-2h14c1.1,0,2,0.9,2,2V216z"/>
</g>
<g>
	<path fill="#FDFCFB" d="M702,216c0,1.1-0.9,2-2,2h-14c-1.1,0-2-0.9-2-2v-14c0-1.1,0.9-2,2-2h14c1.1,0,2,0.9,2,2V216z"/>
</g>
<g>
	<path fill="#FDFCFB" d="M680,216c0,1.1-0.9,2-2,2h-14c-1.1,0-2-0.9-2-2v-14c0-1.1,0.9-2,2-2h14c1.1,0,2,0.9,2,2V216z"/>
</g>
<g>
	<path fill="#FDFCFB" d="M658,216c0,1.1-0.9,2-2,2h-14c-1.1,0-2-0.9-2-2v-14c0-1.1,0.9-2,2-2h14c1.1,0,2,0.9,2,2V216z"/>
</g>
<g>
	<path fill="#FDFCFB" d="M636,216c0,1.1-0.9,2-2,2h-14c-1.1,0-2-0.9-2-2v-14c0-1.1,0.9-2,2-2h14c1.1,0,2,0.9,2,2V216z"/>
</g>
<g>
	<path fill="#FDFCFB" d="M614,216c0,1.1-0.9,2-2,2h-14c-1.1,0-2-0.9-2-2v-14c0-1.1,0.9-2,2-2h14c1.1,0,2,0.9,2,2V216z"/>
</g>
<g>
	<path fill="#FDFCFB" d="M592,216c0,1.1-0.9,2-2,2h-14c-1.1,0-2-0.9-2-2v-14c0-1.1,0.9-2,2-2h14c1.1,0,2,0.9,2,2V216z"/>
</g>
<g>
	<path fill="#FDFCFB" d="M570,216c0,1.1-0.9,2-2,2h-14c-1.1,0-2-0.9-2-2v-14c0-1.1,0.9-2,2-2h14c1.1,0,2,0.9,2,2V216z"/>
</g>
<g>
	<path fill="#FDFCFB" d="M548,216c0,1.1-0.9,2-2,2h-14c-1.1,0-2-0.9-2-2v-14c0-1.1,0.9-2,2-2h14c1.1,0,2,0.9,2,2V216z"/>
</g>
<g>
	<path fill="#FDFCFB" d="M526,216c0,1.1-0.9,2-2,2h-14c-1.1,0-2-0.9-2-2v-14c0-1.1,0.9-2,2-2h14c1.1,0,2,0.9,2,2V216z"/>
</g>
<g>
	<path fill="#FDFCFB" d="M504,216c0,1.1-0.9,2-2,2h-14c-1.1,0-2-0.9-2-2v-14c0-1.1,0.9-2,2-2h14c1.1,0,2,0.9,2,2V216z"/>
</g>
<g>
	<path fill="#FDFCFB" d="M482,216c0,1.1-0.9,2-2,2h-14c-1.1,0-2-0.9-2-2v-14c0-1.1,0.9-2,2-2h14c1.1,0,2,0.9,2,2V216z"/>
</g>
<g>
	<path fill="#FDFCFB" d="M460,216c0,1.1-0.9,2-2,2h-14c-1.1,0-2-0.9-2-2v-14c0-1.1,0.9-2,2-2h14c1.1,0,2,0.9,2,2V216z"/>
</g>
<g>
	<path fill="#FDFCFB" d="M438,216c0,1.1-0.9,2-2,2h-14c-1.1,0-2-0.9-2-2v-14c0-1.1,0.9-2,2-2h14c1.1,0,2,0.9,2,2V216z"/>
</g>
<g>
	<path fill="#FDFCFB" d="M416,216c0,1.1-0.9,2-2,2h-14c-1.1,0-2-0.9-2-2v-14c0-1.1,0.9-2,2-2h14c1.1,0,2,0.9,2,2V216z"/>
</g>
<g>
	<path fill="#FDFCFB" d="M394,216c0,1.1-0.9,2-2,2h-14c-1.1,0-2-0.9-2-2v-14c0-1.1,0.9-2,2-2h14c1.1,0,2,0.9,2,2V216z"/>
</g>
<g>
	<path fill="#FDFCFB" d="M372,216c0,1.1-0.9,2-2,2h-14c-1.1,0-2-0.9-2-2v-14c0-1.1,0.9-2,2-2h14c1.1,0,2,0.9,2,2V216z"/>
</g>
<g>
	<path fill="#FDFCFB" d="M350,216c0,1.1-0.9,2-2,2h-14c-1.1,0-2-0.9-2-2v-14c0-1.1,0.9-2,2-2h14c1.1,0,2,0.9,2,2V216z"/>
</g>
<g>
	<path fill="#FDFCFB" d="M328,216c0,1.1-0.9,2-2,2h-14c-1.1,0-2-0.9-2-2v-14c0-1.1,0.9-2,2-2h14c1.1,0,2,0.9,2,2V216z"/>
</g>
<g>
	<path fill="#FDFCFB" d="M306,216c0,1.1-0.9,2-2,2h-14c-1.1,0-2-0.9-2-2v-14c0-1.1,0.9-2,2-2h14c1.1,0,2,0.9,2,2V216z"/>
</g>
<g>
	<path fill="#FDFCFB" d="M284,216c0,1.1-0.9,2-2,2h-14c-1.1,0-2-0.9-2-2v-14c0-1.1,0.9-2,2-2h14c1.1,0,2,0.9,2,2V216z"/>
</g>
<g>
	<path fill="#FDFCFB" d="M262,216c0,1.1-0.9,2-2,2h-14c-1.1,0-2-0.9-2-2v-14c0-1.1,0.9-2,2-2h14c1.1,0,2,0.9,2,2V216z"/>
</g>
<g>
	<path fill="#FDFCFB" d="M240,216c0,1.1-0.9,2-2,2h-14c-1.1,0-2-0.9-2-2v-14c0-1.1,0.9-2,2-2h14c1.1,0,2,0.9,2,2V216z"/>
</g>
<g>
	<path fill="#FDFCFB" d="M218,216c0,1.1-0.9,2-2,2h-14c-1.1,0-2-0.9-2-2v-14c0-1.1,0.9-2,2-2h14c1.1,0,2,0.9,2,2V216z"/>
</g>
<g>
	<path fill="#FDFCFB" d="M196,216c0,1.1-0.9,2-2,2h-14c-1.1,0-2-0.9-2-2v-14c0-1.1,0.9-2,2-2h14c1.1,0,2,0.9,2,2V216z"/>
</g>
<g>
	<path fill="#FDFCFB" d="M174,216c0,1.1-0.9,2-2,2h-14c-1.1,0-2-0.9-2-2v-14c0-1.1,0.9-2,2-2h14c1.1,0,2,0.9,2,2V216z"/>
</g>
<g>
	<path fill="#FDFCFB" d="M152,216c0,1.1-0.9,2-2,2h-14c-1.1,0-2-0.9-2-2v-14c0-1.1,0.9-2,2-2h14c1.1,0,2,0.9,2,2V216z"/>
</g>
<g>
	<path fill="#FDFCFB" d="M130,216c0,1.1-0.9,2-2,2h-14c-1.1,0-2-0.9-2-2v-14c0-1.1,0.9-2,2-2h14c1.1,0,2,0.9,2,2V216z"/>
</g>
<g>
	<path fill="#FDFCFB" d="M108,216c0,1.1-0.9,2-2,2H92c-1.1,0-2-0.9-2-2v-14c0-1.1,0.9-2,2-2h14c1.1,0,2,0.9,2,2V216z"/>
</g>
<g>
	<path fill="#FDFCFB" d="M86,216c0,1.1-0.9,2-2,2H70c-1.1,0-2-0.9-2-2v-14c0-1.1,0.9-2,2-2h14c1.1,0,2,0.9,2,2V216z"/>
</g>
<g>
	<path fill="#FDFCFB" d="M64,216c0,1.1-0.9,2-2,2H48c-1.1,0-2-0.9-2-2v-14c0-1.1,0.9-2,2-2h14c1.1,0,2,0.9,2,2V216z"/>
</g>
<g>
	<path fill="#FDFCFB" d="M42,216c0,1.1-0.9,2-2,2H26c-1.1,0-2-0.9-2-2v-14c0-1.1,0.9-2,2-2h14c1.1,0,2,0.9,2,2V216z"/>
</g>
<g>
	<path fill="#FDFCFB" d="M20,216c0,1.1-0.9,2-2,2H4c-1.1,0-2-0.9-2-2v-14c0-1.1,0.9-2,2-2h14c1.1,0,2,0.9,2,2V216z"/>
</g>
<g>
	<path fill="#E3E5E2" d="M1120,194c0,1.1-0.9,2-2,2h-14c-1.1,0-2-0.9-2-2v-14c0-1.1,0.9-2,2-2h14c1.1,0,2,0.9,2,2V194z"/>
</g>
<g>
	<path fill="#FDFCFB" d="M1098,194c0,1.1-0.9,2-2,2h-14c-1.1,0-2-0.9-2-2v-14c0-1.1,0.9-2,2-2h14c1.1,0,2,0.9,2,2V194z"/>
</g>
<g>
	<path fill="#FDFCFB" d="M1076,194c0,1.1-0.9,2-2,2h-14c-1.1,0-2-0.9-2-2v-14c0-1.1,0.9-2,2-2h14c1.1,0,2,0.9,2,2V194z"/>
</g>
<g>
	<path fill="#FDFCFB" d="M1054,194c0,1.1-0.9,2-2,2h-14c-1.1,0-2-0.9-2-2v-14c0-1.1,0.9-2,2-2h14c1.1,0,2,0.9,2,2V194z"/>
</g>
<g>
	<path fill="#FDFCFB" d="M1032,194c0,1.1-0.9,2-2,2h-14c-1.1,0-2-0.9-2-2v-14c0-1.1,0.9-2,2-2h14c1.1,0,2,0.9,2,2V194z"/>
</g>
<g>
	<path fill="#FDFCFB" d="M1010,194c0,1.1-0.9,2-2,2h-14c-1.1,0-2-0.9-2-2v-14c0-1.1,0.9-2,2-2h14c1.1,0,2,0.9,2,2V194z"/>
</g>
<g>
	<path fill="#FDFCFB" d="M988,194c0,1.1-0.9,2-2,2h-14c-1.1,0-2-0.9-2-2v-14c0-1.1,0.9-2,2-2h14c1.1,0,2,0.9,2,2V194z"/>
</g>
<g>
	<path fill="#FDFCFB" d="M966,194c0,1.1-0.9,2-2,2h-14c-1.1,0-2-0.9-2-2v-14c0-1.1,0.9-2,2-2h14c1.1,0,2,0.9,2,2V194z"/>
</g>
<g>
	<path fill="#FDFCFB" d="M944,194c0,1.1-0.9,2-2,2h-14c-1.1,0-2-0.9-2-2v-14c0-1.1,0.9-2,2-2h14c1.1,0,2,0.9,2,2V194z"/>
</g>
<g>
	<path fill="#FDFCFB" d="M922,194c0,1.1-0.9,2-2,2h-14c-1.1,0-2-0.9-2-2v-14c0-1.1,0.9-2,2-2h14c1.1,0,2,0.9,2,2V194z"/>
</g>
<g>
	<path fill="#FDFCFB" d="M900,194c0,1.1-0.9,2-2,2h-14c-1.1,0-2-0.9-2-2v-14c0-1.1,0.9-2,2-2h14c1.1,0,2,0.9,2,2V194z"/>
</g>
<g>
	<path fill="#FDFCFB" d="M878,194c0,1.1-0.9,2-2,2h-14c-1.1,0-2-0.9-2-2v-14c0-1.1,0.9-2,2-2h14c1.1,0,2,0.9,2,2V194z"/>
</g>
<g>
	<path fill="#FDFCFB" d="M856,194c0,1.1-0.9,2-2,2h-14c-1.1,0-2-0.9-2-2v-14c0-1.1,0.9-2,2-2h14c1.1,0,2,0.9,2,2V194z"/>
</g>
<g>
	<path fill="#FDFCFB" d="M834,194c0,1.1-0.9,2-2,2h-14c-1.1,0-2-0.9-2-2v-14c0-1.1,0.9-2,2-2h14c1.1,0,2,0.9,2,2V194z"/>
</g>
<g>
	<path fill="#FDFCFB" d="M812,194c0,1.1-0.9,2-2,2h-14c-1.1,0-2-0.9-2-2v-14c0-1.1,0.9-2,2-2h14c1.1,0,2,0.9,2,2V194z"/>
</g>
<g>
	<path fill="#FDFCFB" d="M790,194c0,1.1-0.9,2-2,2h-14c-1.1,0-2-0.9-2-2v-14c0-1.1,0.9-2,2-2h14c1.1,0,2,0.9,2,2V194z"/>
</g>
<g>
	<path fill="#FDFCFB" d="M768,194c0,1.1-0.9,2-2,2h-14c-1.1,0-2-0.9-2-2v-14c0-1.1,0.9-2,2-2h14c1.1,0,2,0.9,2,2V194z"/>
</g>
<g>
	<path fill="#FDFCFB" d="M746,194c0,1.1-0.9,2-2,2h-14c-1.1,0-2-0.9-2-2v-14c0-1.1,0.9-2,2-2h14c1.1,0,2,0.9,2,2V194z"/>
</g>
<g>
	<path fill="#FDFCFB" d="M724,194c0,1.1-0.9,2-2,2h-14c-1.1,0-2-0.9-2-2v-14c0-1.1,0.9-2,2-2h14c1.1,0,2,0.9,2,2V194z"/>
</g>
<g>
	<path fill="#FDFCFB" d="M702,194c0,1.1-0.9,2-2,2h-14c-1.1,0-2-0.9-2-2v-14c0-1.1,0.9-2,2-2h14c1.1,0,2,0.9,2,2V194z"/>
</g>
<g>
	<path fill="#FDFCFB" d="M680,194c0,1.1-0.9,2-2,2h-14c-1.1,0-2-0.9-2-2v-14c0-1.1,0.9-2,2-2h14c1.1,0,2,0.9,2,2V194z"/>
</g>
<g>
	<path fill="#E3E5E2" d="M658,194c0,1.1-0.9,2-2,2h-14c-1.1,0-2-0.9-2-2v-14c0-1.1,0.9-2,2-2h14c1.1,0,2,0.9,2,2V194z"/>
</g>
<g>
	<path fill="#FDFCFB" d="M636,194c0,1.1-0.9,2-2,2h-14c-1.1,0-2-0.9-2-2v-14c0-1.1,0.9-2,2-2h14c1.1,0,2,0.9,2,2V194z"/>
</g>
<g>
	<path fill="#FDFCFB" d="M614,194c0,1.1-0.9,2-2,2h-14c-1.1,0-2-0.9-2-2v-14c0-1.1,0.9-2,2-2h14c1.1,0,2,0.9,2,2V194z"/>
</g>
<g>
	<path fill="#FDFCFB" d="M592,194c0,1.1-0.9,2-2,2h-14c-1.1,0-2-0.9-2-2v-14c0-1.1,0.9-2,2-2h14c1.1,0,2,0.9,2,2V194z"/>
</g>
<g>
	<path fill="#FDFCFB" d="M570,194c0,1.1-0.9,2-2,2h-14c-1.1,0-2-0.9-2-2v-14c0-1.1,0.9-2,2-2h14c1.1,0,2,0.9,2,2V194z"/>
</g>
<g>
	<path fill="#FDFCFB" d="M548,194c0,1.1-0.9,2-2,2h-14c-1.1,0-2-0.9-2-2v-14c0-1.1,0.9-2,2-2h14c1.1,0,2,0.9,2,2V194z"/>
</g>
<g>
	<path fill="#FDFCFB" d="M526,194c0,1.1-0.9,2-2,2h-14c-1.1,0-2-0.9-2-2v-14c0-1.1,0.9-2,2-2h14c1.1,0,2,0.9,2,2V194z"/>
</g>
<g>
	<path fill="#FDFCFB" d="M504,194c0,1.1-0.9,2-2,2h-14c-1.1,0-2-0.9-2-2v-14c0-1.1,0.9-2,2-2h14c1.1,0,2,0.9,2,2V194z"/>
</g>
<g>
	<path fill="#FDFCFB" d="M482,194c0,1.1-0.9,2-2,2h-14c-1.1,0-2-0.9-2-2v-14c0-1.1,0.9-2,2-2h14c1.1,0,2,0.9,2,2V194z"/>
</g>
<g>
	<path fill="#FDFCFB" d="M460,194c0,1.1-0.9,2-2,2h-14c-1.1,0-2-0.9-2-2v-14c0-1.1,0.9-2,2-2h14c1.1,0,2,0.9,2,2V194z"/>
</g>
<g>
	<path fill="#FDFCFB" d="M438,194c0,1.1-0.9,2-2,2h-14c-1.1,0-2-0.9-2-2v-14c0-1.1,0.9-2,2-2h14c1.1,0,2,0.9,2,2V194z"/>
</g>
<g>
	<path fill="#FDFCFB" d="M416,194c0,1.1-0.9,2-2,2h-14c-1.1,0-2-0.9-2-2v-14c0-1.1,0.9-2,2-2h14c1.1,0,2,0.9,2,2V194z"/>
</g>
<g>
	<path fill="#FDFCFB" d="M394,194c0,1.1-0.9,2-2,2h-14c-1.1,0-2-0.9-2-2v-14c0-1.1,0.9-2,2-2h14c1.1,0,2,0.9,2,2V194z"/>
</g>
<g>
	<path fill="#FDFCFB" d="M372,194c0,1.1-0.9,2-2,2h-14c-1.1,0-2-0.9-2-2v-14c0-1.1,0.9-2,2-2h14c1.1,0,2,0.9,2,2V194z"/>
</g>
<g>
	<path fill="#F3F4F2" d="M350,194c0,1.1-0.9,2-2,2h-14c-1.1,0-2-0.9-2-2v-14c0-1.1,0.9-2,2-2h14c1.1,0,2,0.9,2,2V194z"/>
</g>
<g>
	<path fill="#FDFCFB" d="M328,194c0,1.1-0.9,2-2,2h-14c-1.1,0-2-0.9-2-2v-14c0-1.1,0.9-2,2-2h14c1.1,0,2,0.9,2,2V194z"/>
</g>
<g>
	<path fill="#FDFCFB" d="M306,194c0,1.1-0.9,2-2,2h-14c-1.1,0-2-0.9-2-2v-14c0-1.1,0.9-2,2-2h14c1.1,0,2,0.9,2,2V194z"/>
</g>
<g>
	<path fill="#FDFCFB" d="M284,194c0,1.1-0.9,2-2,2h-14c-1.1,0-2-0.9-2-2v-14c0-1.1,0.9-2,2-2h14c1.1,0,2,0.9,2,2V194z"/>
</g>
<g>
	<path fill="#FDFCFB" d="M262,194c0,1.1-0.9,2-2,2h-14c-1.1,0-2-0.9-2-2v-14c0-1.1,0.9-2,2-2h14c1.1,0,2,0.9,2,2V194z"/>
</g>
<g>
	<path fill="#FDFCFB" d="M240,194c0,1.1-0.9,2-2,2h-14c-1.1,0-2-0.9-2-2v-14c0-1.1,0.9-2,2-2h14c1.1,0,2,0.9,2,2V194z"/>
</g>
<g>
	<path fill="#FDFCFB" d="M218,194c0,1.1-0.9,2-2,2h-14c-1.1,0-2-0.9-2-2v-14c0-1.1,0.9-2,2-2h14c1.1,0,2,0.9,2,2V194z"/>
</g>
<g>
	<path fill="#FDFCFB" d="M196,194c0,1.1-0.9,2-2,2h-14c-1.1,0-2-0.9-2-2v-14c0-1.1,0.9-2,2-2h14c1.1,0,2,0.9,2,2V194z"/>
</g>
<g>
	<path fill="#FDFCFB" d="M174,194c0,1.1-0.9,2-2,2h-14c-1.1,0-2-0.9-2-2v-14c0-1.1,0.9-2,2-2h14c1.1,0,2,0.9,2,2V194z"/>
</g>
<g>
	<path fill="#F3F4F2" d="M152,194c0,1.1-0.9,2-2,2h-14c-1.1,0-2-0.9-2-2v-14c0-1.1,0.9-2,2-2h14c1.1,0,2,0.9,2,2V194z"/>
</g>
<g>
	<path fill="#FDFCFB" d="M130,194c0,1.1-0.9,2-2,2h-14c-1.1,0-2-0.9-2-2v-14c0-1.1,0.9-2,2-2h14c1.1,0,2,0.9,2,2V194z"/>
</g>
<g>
	<path fill="#FDFCFB" d="M108,194c0,1.1-0.9,2-2,2H92c-1.1,0-2-0.9-2-2v-14c0-1.1,0.9-2,2-2h14c1.1,0,2,0.9,2,2V194z"/>
</g>
<g>
	<path fill="#FDFCFB" d="M86,194c0,1.1-0.9,2-2,2H70c-1.1,0-2-0.9-2-2v-14c0-1.1,0.9-2,2-2h14c1.1,0,2,0.9,2,2V194z"/>
</g>
<g>
	<path fill="#FDFCFB" d="M64,194c0,1.1-0.9,2-2,2H48c-1.1,0-2-0.9-2-2v-14c0-1.1,0.9-2,2-2h14c1.1,0,2,0.9,2,2V194z"/>
</g>
<g>
	<path fill="#FDFCFB" d="M42,194c0,1.1-0.9,2-2,2H26c-1.1,0-2-0.9-2-2v-14c0-1.1,0.9-2,2-2h14c1.1,0,2,0.9,2,2V194z"/>
</g>
<g>
	<path fill="#FDFCFB" d="M20,194c0,1.1-0.9,2-2,2H4c-1.1,0-2-0.9-2-2v-14c0-1.1,0.9-2,2-2h14c1.1,0,2,0.9,2,2V194z"/>
</g>
<g>
	<path fill="#FDFCFB" d="M1120,172c0,1.1-0.9,2-2,2h-14c-1.1,0-2-0.9-2-2v-14c0-1.1,0.9-2,2-2h14c1.1,0,2,0.9,2,2V172z"/>
</g>
<g>
	<path fill="#FDFCFB" d="M1098,172c0,1.1-0.9,2-2,2h-14c-1.1,0-2-0.9-2-2v-14c0-1.1,0.9-2,2-2h14c1.1,0,2,0.9,2,2V172z"/>
</g>
<g>
	<path fill="#FDFCFB" d="M1076,172c0,1.1-0.9,2-2,2h-14c-1.1,0-2-0.9-2-2v-14c0-1.1,0.9-2,2-2h14c1.1,0,2,0.9,2,2V172z"/>
</g>
<g>
	<path fill="#FDFCFB" d="M1054,172c0,1.1-0.9,2-2,2h-14c-1.1,0-2-0.9-2-2v-14c0-1.1,0.9-2,2-2h14c1.1,0,2,0.9,2,2V172z"/>
</g>
<g>
	<path fill="#FDFCFB" d="M1032,172c0,1.1-0.9,2-2,2h-14c-1.1,0-2-0.9-2-2v-14c0-1.1,0.9-2,2-2h14c1.1,0,2,0.9,2,2V172z"/>
</g>
<g>
	<path fill="#FDFCFB" d="M1010,172c0,1.1-0.9,2-2,2h-14c-1.1,0-2-0.9-2-2v-14c0-1.1,0.9-2,2-2h14c1.1,0,2,0.9,2,2V172z"/>
</g>
<g>
	<path fill="#F3F4F2" d="M988,172c0,1.1-0.9,2-2,2h-14c-1.1,0-2-0.9-2-2v-14c0-1.1,0.9-2,2-2h14c1.1,0,2,0.9,2,2V172z"/>
</g>
<g>
	<path fill="#FDFCFB" d="M966,172c0,1.1-0.9,2-2,2h-14c-1.1,0-2-0.9-2-2v-14c0-1.1,0.9-2,2-2h14c1.1,0,2,0.9,2,2V172z"/>
</g>
<g>
	<path fill="#FDFCFB" d="M944,172c0,1.1-0.9,2-2,2h-14c-1.1,0-2-0.9-2-2v-14c0-1.1,0.9-2,2-2h14c1.1,0,2,0.9,2,2V172z"/>
</g>
<g>
	<path fill="#FDFCFB" d="M922,172c0,1.1-0.9,2-2,2h-14c-1.1,0-2-0.9-2-2v-14c0-1.1,0.9-2,2-2h14c1.1,0,2,0.9,2,2V172z"/>
</g>
<g>
	<path fill="#FDFCFB" d="M900,172c0,1.1-0.9,2-2,2h-14c-1.1,0-2-0.9-2-2v-14c0-1.1,0.9-2,2-2h14c1.1,0,2,0.9,2,2V172z"/>
</g>
<g>
	<path fill="#FDFCFB" d="M878,172c0,1.1-0.9,2-2,2h-14c-1.1,0-2-0.9-2-2v-14c0-1.1,0.9-2,2-2h14c1.1,0,2,0.9,2,2V172z"/>
</g>
<g>
	<path fill="#FDFCFB" d="M856,172c0,1.1-0.9,2-2,2h-14c-1.1,0-2-0.9-2-2v-14c0-1.1,0.9-2,2-2h14c1.1,0,2,0.9,2,2V172z"/>
</g>
<g>
	<path fill="#FDFCFB" d="M834,172c0,1.1-0.9,2-2,2h-14c-1.1,0-2-0.9-2-2v-14c0-1.1,0.9-2,2-2h14c1.1,0,2,0.9,2,2V172z"/>
</g>
<g>
	<path fill="#FDFCFB" d="M812,172c0,1.1-0.9,2-2,2h-14c-1.1,0-2-0.9-2-2v-14c0-1.1,0.9-2,2-2h14c1.1,0,2,0.9,2,2V172z"/>
</g>
<g>
	<path fill="#FDFCFB" d="M790,172c0,1.1-0.9,2-2,2h-14c-1.1,0-2-0.9-2-2v-14c0-1.1,0.9-2,2-2h14c1.1,0,2,0.9,2,2V172z"/>
</g>
<g>
	<path fill="#FDFCFB" d="M768,172c0,1.1-0.9,2-2,2h-14c-1.1,0-2-0.9-2-2v-14c0-1.1,0.9-2,2-2h14c1.1,0,2,0.9,2,2V172z"/>
</g>
<g>
	<path fill="#FDFCFB" d="M746,172c0,1.1-0.9,2-2,2h-14c-1.1,0-2-0.9-2-2v-14c0-1.1,0.9-2,2-2h14c1.1,0,2,0.9,2,2V172z"/>
</g>
<g>
	<path fill="#FDFCFB" d="M724,172c0,1.1-0.9,2-2,2h-14c-1.1,0-2-0.9-2-2v-14c0-1.1,0.9-2,2-2h14c1.1,0,2,0.9,2,2V172z"/>
</g>
<g>
	<path fill="#FDFCFB" d="M702,172c0,1.1-0.9,2-2,2h-14c-1.1,0-2-0.9-2-2v-14c0-1.1,0.9-2,2-2h14c1.1,0,2,0.9,2,2V172z"/>
</g>
<g>
	<path fill="#FDFCFB" d="M680,172c0,1.1-0.9,2-2,2h-14c-1.1,0-2-0.9-2-2v-14c0-1.1,0.9-2,2-2h14c1.1,0,2,0.9,2,2V172z"/>
</g>
<g>
	<path fill="#FDFCFB" d="M658,172c0,1.1-0.9,2-2,2h-14c-1.1,0-2-0.9-2-2v-14c0-1.1,0.9-2,2-2h14c1.1,0,2,0.9,2,2V172z"/>
</g>
<g>
	<path fill="#FDFCFB" d="M636,172c0,1.1-0.9,2-2,2h-14c-1.1,0-2-0.9-2-2v-14c0-1.1,0.9-2,2-2h14c1.1,0,2,0.9,2,2V172z"/>
</g>
<g>
	<path fill="#FDFCFB" d="M614,172c0,1.1-0.9,2-2,2h-14c-1.1,0-2-0.9-2-2v-14c0-1.1,0.9-2,2-2h14c1.1,0,2,0.9,2,2V172z"/>
</g>
<g>
	<path fill="#FDFCFB" d="M592,172c0,1.1-0.9,2-2,2h-14c-1.1,0-2-0.9-2-2v-14c0-1.1,0.9-2,2-2h14c1.1,0,2,0.9,2,2V172z"/>
</g>
<g>
	<path fill="#FDFCFB" d="M570,172c0,1.1-0.9,2-2,2h-14c-1.1,0-2-0.9-2-2v-14c0-1.1,0.9-2,2-2h14c1.1,0,2,0.9,2,2V172z"/>
</g>
<g>
	<path fill="#FDFCFB" d="M548,172c0,1.1-0.9,2-2,2h-14c-1.1,0-2-0.9-2-2v-14c0-1.1,0.9-2,2-2h14c1.1,0,2,0.9,2,2V172z"/>
</g>
<g>
	<path fill="#FDFCFB" d="M526,172c0,1.1-0.9,2-2,2h-14c-1.1,0-2-0.9-2-2v-14c0-1.1,0.9-2,2-2h14c1.1,0,2,0.9,2,2V172z"/>
</g>
<g>
	<path fill="#FDFCFB" d="M504,172c0,1.1-0.9,2-2,2h-14c-1.1,0-2-0.9-2-2v-14c0-1.1,0.9-2,2-2h14c1.1,0,2,0.9,2,2V172z"/>
</g>
<g>
	<path fill="#FDFCFB" d="M482,172c0,1.1-0.9,2-2,2h-14c-1.1,0-2-0.9-2-2v-14c0-1.1,0.9-2,2-2h14c1.1,0,2,0.9,2,2V172z"/>
</g>
<g>
	<path fill="#FDFCFB" d="M460,172c0,1.1-0.9,2-2,2h-14c-1.1,0-2-0.9-2-2v-14c0-1.1,0.9-2,2-2h14c1.1,0,2,0.9,2,2V172z"/>
</g>
<g>
	<path fill="#FDFCFB" d="M438,172c0,1.1-0.9,2-2,2h-14c-1.1,0-2-0.9-2-2v-14c0-1.1,0.9-2,2-2h14c1.1,0,2,0.9,2,2V172z"/>
</g>
<g>
	<path fill="#FDFCFB" d="M416,172c0,1.1-0.9,2-2,2h-14c-1.1,0-2-0.9-2-2v-14c0-1.1,0.9-2,2-2h14c1.1,0,2,0.9,2,2V172z"/>
</g>
<g>
	<path fill="#FDFCFB" d="M394,172c0,1.1-0.9,2-2,2h-14c-1.1,0-2-0.9-2-2v-14c0-1.1,0.9-2,2-2h14c1.1,0,2,0.9,2,2V172z"/>
</g>
<g>
	<path fill="#FDFCFB" d="M372,172c0,1.1-0.9,2-2,2h-14c-1.1,0-2-0.9-2-2v-14c0-1.1,0.9-2,2-2h14c1.1,0,2,0.9,2,2V172z"/>
</g>
<g>
	<path fill="#FDFCFB" d="M350,172c0,1.1-0.9,2-2,2h-14c-1.1,0-2-0.9-2-2v-14c0-1.1,0.9-2,2-2h14c1.1,0,2,0.9,2,2V172z"/>
</g>
<g>
	<path fill="#FDFCFB" d="M328,172c0,1.1-0.9,2-2,2h-14c-1.1,0-2-0.9-2-2v-14c0-1.1,0.9-2,2-2h14c1.1,0,2,0.9,2,2V172z"/>
</g>
<g>
	<path fill="#FDFCFB" d="M306,172c0,1.1-0.9,2-2,2h-14c-1.1,0-2-0.9-2-2v-14c0-1.1,0.9-2,2-2h14c1.1,0,2,0.9,2,2V172z"/>
</g>
<g>
	<path fill="#E3E5E2" d="M284,172c0,1.1-0.9,2-2,2h-14c-1.1,0-2-0.9-2-2v-14c0-1.1,0.9-2,2-2h14c1.1,0,2,0.9,2,2V172z"/>
</g>
<g>
	<path fill="#FDFCFB" d="M262,172c0,1.1-0.9,2-2,2h-14c-1.1,0-2-0.9-2-2v-14c0-1.1,0.9-2,2-2h14c1.1,0,2,0.9,2,2V172z"/>
</g>
<g>
	<path fill="#FDFCFB" d="M240,172c0,1.1-0.9,2-2,2h-14c-1.1,0-2-0.9-2-2v-14c0-1.1,0.9-2,2-2h14c1.1,0,2,0.9,2,2V172z"/>
</g>
<g>
	<path fill="#FDFCFB" d="M218,172c0,1.1-0.9,2-2,2h-14c-1.1,0-2-0.9-2-2v-14c0-1.1,0.9-2,2-2h14c1.1,0,2,0.9,2,2V172z"/>
</g>
<g>
	<path fill="#FDFCFB" d="M196,172c0,1.1-0.9,2-2,2h-14c-1.1,0-2-0.9-2-2v-14c0-1.1,0.9-2,2-2h14c1.1,0,2,0.9,2,2V172z"/>
</g>
<g>
	<path fill="#FDFCFB" d="M174,172c0,1.1-0.9,2-2,2h-14c-1.1,0-2-0.9-2-2v-14c0-1.1,0.9-2,2-2h14c1.1,0,2,0.9,2,2V172z"/>
</g>
<g>
	<path fill="#FDFCFB" d="M152,172c0,1.1-0.9,2-2,2h-14c-1.1,0-2-0.9-2-2v-14c0-1.1,0.9-2,2-2h14c1.1,0,2,0.9,2,2V172z"/>
</g>
<g>
	<path fill="#FDFCFB" d="M130,172c0,1.1-0.9,2-2,2h-14c-1.1,0-2-0.9-2-2v-14c0-1.1,0.9-2,2-2h14c1.1,0,2,0.9,2,2V172z"/>
</g>
<g>
	<path fill="#FDFCFB" d="M108,172c0,1.1-0.9,2-2,2H92c-1.1,0-2-0.9-2-2v-14c0-1.1,0.9-2,2-2h14c1.1,0,2,0.9,2,2V172z"/>
</g>
<g>
	<path fill="#FDFCFB" d="M86,172c0,1.1-0.9,2-2,2H70c-1.1,0-2-0.9-2-2v-14c0-1.1,0.9-2,2-2h14c1.1,0,2,0.9,2,2V172z"/>
</g>
<g>
	<path fill="#FDFCFB" d="M64,172c0,1.1-0.9,2-2,2H48c-1.1,0-2-0.9-2-2v-14c0-1.1,0.9-2,2-2h14c1.1,0,2,0.9,2,2V172z"/>
</g>
<g>
	<path fill="#FDFCFB" d="M42,172c0,1.1-0.9,2-2,2H26c-1.1,0-2-0.9-2-2v-14c0-1.1,0.9-2,2-2h14c1.1,0,2,0.9,2,2V172z"/>
</g>
<g>
	<path fill="#FDFCFB" d="M20,172c0,1.1-0.9,2-2,2H4c-1.1,0-2-0.9-2-2v-14c0-1.1,0.9-2,2-2h14c1.1,0,2,0.9,2,2V172z"/>
</g>
<g>
	<path fill="#FDFCFB" d="M1120,150c0,1.1-0.9,2-2,2h-14c-1.1,0-2-0.9-2-2v-14c0-1.1,0.9-2,2-2h14c1.1,0,2,0.9,2,2V150z"/>
</g>
<g>
	<path fill="#FDFCFB" d="M1098,150c0,1.1-0.9,2-2,2h-14c-1.1,0-2-0.9-2-2v-14c0-1.1,0.9-2,2-2h14c1.1,0,2,0.9,2,2V150z"/>
</g>
<g>
	<path fill="#FDFCFB" d="M1076,150c0,1.1-0.9,2-2,2h-14c-1.1,0-2-0.9-2-2v-14c0-1.1,0.9-2,2-2h14c1.1,0,2,0.9,2,2V150z"/>
</g>
<g>
	<path fill="#FDFCFB" d="M1054,150c0,1.1-0.9,2-2,2h-14c-1.1,0-2-0.9-2-2v-14c0-1.1,0.9-2,2-2h14c1.1,0,2,0.9,2,2V150z"/>
</g>
<g>
	<path fill="#FDFCFB" d="M1032,150c0,1.1-0.9,2-2,2h-14c-1.1,0-2-0.9-2-2v-14c0-1.1,0.9-2,2-2h14c1.1,0,2,0.9,2,2V150z"/>
</g>
<g>
	<path fill="#FDFCFB" d="M1010,150c0,1.1-0.9,2-2,2h-14c-1.1,0-2-0.9-2-2v-14c0-1.1,0.9-2,2-2h14c1.1,0,2,0.9,2,2V150z"/>
</g>
<g>
	<path fill="#FDFCFB" d="M988,150c0,1.1-0.9,2-2,2h-14c-1.1,0-2-0.9-2-2v-14c0-1.1,0.9-2,2-2h14c1.1,0,2,0.9,2,2V150z"/>
</g>
<g>
	<path fill="#FDFCFB" d="M966,150c0,1.1-0.9,2-2,2h-14c-1.1,0-2-0.9-2-2v-14c0-1.1,0.9-2,2-2h14c1.1,0,2,0.9,2,2V150z"/>
</g>
<g>
	<path fill="#FDFCFB" d="M944,150c0,1.1-0.9,2-2,2h-14c-1.1,0-2-0.9-2-2v-14c0-1.1,0.9-2,2-2h14c1.1,0,2,0.9,2,2V150z"/>
</g>
<g>
	<path fill="#FDFCFB" d="M922,150c0,1.1-0.9,2-2,2h-14c-1.1,0-2-0.9-2-2v-14c0-1.1,0.9-2,2-2h14c1.1,0,2,0.9,2,2V150z"/>
</g>
<g>
	<path fill="#FDFCFB" d="M900,150c0,1.1-0.9,2-2,2h-14c-1.1,0-2-0.9-2-2v-14c0-1.1,0.9-2,2-2h14c1.1,0,2,0.9,2,2V150z"/>
</g>
<g>
	<path fill="#FDFCFB" d="M878,150c0,1.1-0.9,2-2,2h-14c-1.1,0-2-0.9-2-2v-14c0-1.1,0.9-2,2-2h14c1.1,0,2,0.9,2,2V150z"/>
</g>
<g>
	<path fill="#FDFCFB" d="M856,150c0,1.1-0.9,2-2,2h-14c-1.1,0-2-0.9-2-2v-14c0-1.1,0.9-2,2-2h14c1.1,0,2,0.9,2,2V150z"/>
</g>
<g>
	<path fill="#FDFCFB" d="M834,150c0,1.1-0.9,2-2,2h-14c-1.1,0-2-0.9-2-2v-14c0-1.1,0.9-2,2-2h14c1.1,0,2,0.9,2,2V150z"/>
</g>
<g>
	<path fill="#FDFCFB" d="M812,150c0,1.1-0.9,2-2,2h-14c-1.1,0-2-0.9-2-2v-14c0-1.1,0.9-2,2-2h14c1.1,0,2,0.9,2,2V150z"/>
</g>
<g>
	<path fill="#FDFCFB" d="M790,150c0,1.1-0.9,2-2,2h-14c-1.1,0-2-0.9-2-2v-14c0-1.1,0.9-2,2-2h14c1.1,0,2,0.9,2,2V150z"/>
</g>
<g>
	<path fill="#FDFCFB" d="M768,150c0,1.1-0.9,2-2,2h-14c-1.1,0-2-0.9-2-2v-14c0-1.1,0.9-2,2-2h14c1.1,0,2,0.9,2,2V150z"/>
</g>
<g>
	<path fill="#F3F4F2" d="M746,150c0,1.1-0.9,2-2,2h-14c-1.1,0-2-0.9-2-2v-14c0-1.1,0.9-2,2-2h14c1.1,0,2,0.9,2,2V150z"/>
</g>
<g>
	<path fill="#FDFCFB" d="M724,150c0,1.1-0.9,2-2,2h-14c-1.1,0-2-0.9-2-2v-14c0-1.1,0.9-2,2-2h14c1.1,0,2,0.9,2,2V150z"/>
</g>
<g>
	<path fill="#FDFCFB" d="M702,150c0,1.1-0.9,2-2,2h-14c-1.1,0-2-0.9-2-2v-14c0-1.1,0.9-2,2-2h14c1.1,0,2,0.9,2,2V150z"/>
</g>
<g>
	<path fill="#FDFCFB" d="M680,150c0,1.1-0.9,2-2,2h-14c-1.1,0-2-0.9-2-2v-14c0-1.1,0.9-2,2-2h14c1.1,0,2,0.9,2,2V150z"/>
</g>
<g>
	<path fill="#FDFCFB" d="M658,150c0,1.1-0.9,2-2,2h-14c-1.1,0-2-0.9-2-2v-14c0-1.1,0.9-2,2-2h14c1.1,0,2,0.9,2,2V150z"/>
</g>
<g>
	<path fill="#FDFCFB" d="M636,150c0,1.1-0.9,2-2,2h-14c-1.1,0-2-0.9-2-2v-14c0-1.1,0.9-2,2-2h14c1.1,0,2,0.9,2,2V150z"/>
</g>
<g>
	<path fill="#FDFCFB" d="M614,150c0,1.1-0.9,2-2,2h-14c-1.1,0-2-0.9-2-2v-14c0-1.1,0.9-2,2-2h14c1.1,0,2,0.9,2,2V150z"/>
</g>
<g>
	<path fill="#FDFCFB" d="M592,150c0,1.1-0.9,2-2,2h-14c-1.1,0-2-0.9-2-2v-14c0-1.1,0.9-2,2-2h14c1.1,0,2,0.9,2,2V150z"/>
</g>
<g>
	<path fill="#FDFCFB" d="M570,150c0,1.1-0.9,2-2,2h-14c-1.1,0-2-0.9-2-2v-14c0-1.1,0.9-2,2-2h14c1.1,0,2,0.9,2,2V150z"/>
</g>
<g>
	<path fill="#FDFCFB" d="M548,150c0,1.1-0.9,2-2,2h-14c-1.1,0-2-0.9-2-2v-14c0-1.1,0.9-2,2-2h14c1.1,0,2,0.9,2,2V150z"/>
</g>
<g>
	<path fill="#FDFCFB" d="M526,150c0,1.1-0.9,2-2,2h-14c-1.1,0-2-0.9-2-2v-14c0-1.1,0.9-2,2-2h14c1.1,0,2,0.9,2,2V150z"/>
</g>
<g>
	<path fill="#FDFCFB" d="M504,150c0,1.1-0.9,2-2,2h-14c-1.1,0-2-0.9-2-2v-14c0-1.1,0.9-2,2-2h14c1.1,0,2,0.9,2,2V150z"/>
</g>
<g>
	<path fill="#FDFCFB" d="M482,150c0,1.1-0.9,2-2,2h-14c-1.1,0-2-0.9-2-2v-14c0-1.1,0.9-2,2-2h14c1.1,0,2,0.9,2,2V150z"/>
</g>
<g>
	<path fill="#FDFCFB" d="M460,150c0,1.1-0.9,2-2,2h-14c-1.1,0-2-0.9-2-2v-14c0-1.1,0.9-2,2-2h14c1.1,0,2,0.9,2,2V150z"/>
</g>
<g>
	<path fill="#FDFCFB" d="M438,150c0,1.1-0.9,2-2,2h-14c-1.1,0-2-0.9-2-2v-14c0-1.1,0.9-2,2-2h14c1.1,0,2,0.9,2,2V150z"/>
</g>
<g>
	<path fill="#FDFCFB" d="M416,150c0,1.1-0.9,2-2,2h-14c-1.1,0-2-0.9-2-2v-14c0-1.1,0.9-2,2-2h14c1.1,0,2,0.9,2,2V150z"/>
</g>
<g>
	<path fill="#FDFCFB" d="M394,150c0,1.1-0.9,2-2,2h-14c-1.1,0-2-0.9-2-2v-14c0-1.1,0.9-2,2-2h14c1.1,0,2,0.9,2,2V150z"/>
</g>
<g>
	<path fill="#FDFCFB" d="M372,150c0,1.1-0.9,2-2,2h-14c-1.1,0-2-0.9-2-2v-14c0-1.1,0.9-2,2-2h14c1.1,0,2,0.9,2,2V150z"/>
</g>
<g>
	<path fill="#FDFCFB" d="M350,150c0,1.1-0.9,2-2,2h-14c-1.1,0-2-0.9-2-2v-14c0-1.1,0.9-2,2-2h14c1.1,0,2,0.9,2,2V150z"/>
</g>
<g>
	<path fill="#FDFCFB" d="M328,150c0,1.1-0.9,2-2,2h-14c-1.1,0-2-0.9-2-2v-14c0-1.1,0.9-2,2-2h14c1.1,0,2,0.9,2,2V150z"/>
</g>
<g>
	<path fill="#FDFCFB" d="M306,150c0,1.1-0.9,2-2,2h-14c-1.1,0-2-0.9-2-2v-14c0-1.1,0.9-2,2-2h14c1.1,0,2,0.9,2,2V150z"/>
</g>
<g>
	<path fill="#FDFCFB" d="M284,150c0,1.1-0.9,2-2,2h-14c-1.1,0-2-0.9-2-2v-14c0-1.1,0.9-2,2-2h14c1.1,0,2,0.9,2,2V150z"/>
</g>
<g>
	<path fill="#FDFCFB" d="M262,150c0,1.1-0.9,2-2,2h-14c-1.1,0-2-0.9-2-2v-14c0-1.1,0.9-2,2-2h14c1.1,0,2,0.9,2,2V150z"/>
</g>
<g>
	<path fill="#FDFCFB" d="M240,150c0,1.1-0.9,2-2,2h-14c-1.1,0-2-0.9-2-2v-14c0-1.1,0.9-2,2-2h14c1.1,0,2,0.9,2,2V150z"/>
</g>
<g>
	<path fill="#FDFCFB" d="M218,150c0,1.1-0.9,2-2,2h-14c-1.1,0-2-0.9-2-2v-14c0-1.1,0.9-2,2-2h14c1.1,0,2,0.9,2,2V150z"/>
</g>
<g>
	<path fill="#FDFCFB" d="M196,150c0,1.1-0.9,2-2,2h-14c-1.1,0-2-0.9-2-2v-14c0-1.1,0.9-2,2-2h14c1.1,0,2,0.9,2,2V150z"/>
</g>
<g>
	<path fill="#FDFCFB" d="M174,150c0,1.1-0.9,2-2,2h-14c-1.1,0-2-0.9-2-2v-14c0-1.1,0.9-2,2-2h14c1.1,0,2,0.9,2,2V150z"/>
</g>
<g>
	<path fill="#FDFCFB" d="M152,150c0,1.1-0.9,2-2,2h-14c-1.1,0-2-0.9-2-2v-14c0-1.1,0.9-2,2-2h14c1.1,0,2,0.9,2,2V150z"/>
</g>
<g>
	<path fill="#FDFCFB" d="M130,150c0,1.1-0.9,2-2,2h-14c-1.1,0-2-0.9-2-2v-14c0-1.1,0.9-2,2-2h14c1.1,0,2,0.9,2,2V150z"/>
</g>
<g>
	<path fill="#FDFCFB" d="M108,150c0,1.1-0.9,2-2,2H92c-1.1,0-2-0.9-2-2v-14c0-1.1,0.9-2,2-2h14c1.1,0,2,0.9,2,2V150z"/>
</g>
<g>
	<path fill="#FDFCFB" d="M86,150c0,1.1-0.9,2-2,2H70c-1.1,0-2-0.9-2-2v-14c0-1.1,0.9-2,2-2h14c1.1,0,2,0.9,2,2V150z"/>
</g>
<g>
	<path fill="#FDFCFB" d="M64,150c0,1.1-0.9,2-2,2H48c-1.1,0-2-0.9-2-2v-14c0-1.1,0.9-2,2-2h14c1.1,0,2,0.9,2,2V150z"/>
</g>
<g>
	<path fill="#FDFCFB" d="M42,150c0,1.1-0.9,2-2,2H26c-1.1,0-2-0.9-2-2v-14c0-1.1,0.9-2,2-2h14c1.1,0,2,0.9,2,2V150z"/>
</g>
<g>
	<path fill="#FDFCFB" d="M20,150c0,1.1-0.9,2-2,2H4c-1.1,0-2-0.9-2-2v-14c0-1.1,0.9-2,2-2h14c1.1,0,2,0.9,2,2V150z"/>
</g>
<path fill="#FDFCFB" d="M1120,128c0,1.1-0.9,2-2,2h-14c-1.1,0-2-0.9-2-2v-14c0-1.1,0.9-2,2-2h14c1.1,0,2,0.9,2,2V128z"/>
<path fill="#FDFCFB" d="M1098,128c0,1.1-0.9,2-2,2h-14c-1.1,0-2-0.9-2-2v-14c0-1.1,0.9-2,2-2h14c1.1,0,2,0.9,2,2V128z"/>
<path fill="#FDFCFB" d="M1076,128c0,1.1-0.9,2-2,2h-14c-1.1,0-2-0.9-2-2v-14c0-1.1,0.9-2,2-2h14c1.1,0,2,0.9,2,2V128z"/>
<path fill="#FDFCFB" d="M1054,128c0,1.1-0.9,2-2,2h-14c-1.1,0-2-0.9-2-2v-14c0-1.1,0.9-2,2-2h14c1.1,0,2,0.9,2,2V128z"/>
<path fill="#FDFCFB" d="M1032,128c0,1.1-0.9,2-2,2h-14c-1.1,0-2-0.9-2-2v-14c0-1.1,0.9-2,2-2h14c1.1,0,2,0.9,2,2V128z"/>
<path fill="#FDFCFB" d="M1010,128c0,1.1-0.9,2-2,2h-14c-1.1,0-2-0.9-2-2v-14c0-1.1,0.9-2,2-2h14c1.1,0,2,0.9,2,2V128z"/>
<path fill="#FDFCFB" d="M988,128c0,1.1-0.9,2-2,2h-14c-1.1,0-2-0.9-2-2v-14c0-1.1,0.9-2,2-2h14c1.1,0,2,0.9,2,2V128z"/>
<path fill="#FDFCFB" d="M966,128c0,1.1-0.9,2-2,2h-14c-1.1,0-2-0.9-2-2v-14c0-1.1,0.9-2,2-2h14c1.1,0,2,0.9,2,2V128z"/>
<path fill="#FDFCFB" d="M944,128c0,1.1-0.9,2-2,2h-14c-1.1,0-2-0.9-2-2v-14c0-1.1,0.9-2,2-2h14c1.1,0,2,0.9,2,2V128z"/>
<path fill="#FDFCFB" d="M922,128c0,1.1-0.9,2-2,2h-14c-1.1,0-2-0.9-2-2v-14c0-1.1,0.9-2,2-2h14c1.1,0,2,0.9,2,2V128z"/>
<path fill="#FDFCFB" d="M900,128c0,1.1-0.9,2-2,2h-14c-1.1,0-2-0.9-2-2v-14c0-1.1,0.9-2,2-2h14c1.1,0,2,0.9,2,2V128z"/>
<path fill="#FDFCFB" d="M878,128c0,1.1-0.9,2-2,2h-14c-1.1,0-2-0.9-2-2v-14c0-1.1,0.9-2,2-2h14c1.1,0,2,0.9,2,2V128z"/>
<path fill="#FDFCFB" d="M856,128c0,1.1-0.9,2-2,2h-14c-1.1,0-2-0.9-2-2v-14c0-1.1,0.9-2,2-2h14c1.1,0,2,0.9,2,2V128z"/>
<path fill="#FDFCFB" d="M834,128c0,1.1-0.9,2-2,2h-14c-1.1,0-2-0.9-2-2v-14c0-1.1,0.9-2,2-2h14c1.1,0,2,0.9,2,2V128z"/>
<path fill="#FDFCFB" d="M812,128c0,1.1-0.9,2-2,2h-14c-1.1,0-2-0.9-2-2v-14c0-1.1,0.9-2,2-2h14c1.1,0,2,0.9,2,2V128z"/>
<path fill="#FDFCFB" d="M790,128c0,1.1-0.9,2-2,2h-14c-1.1,0-2-0.9-2-2v-14c0-1.1,0.9-2,2-2h14c1.1,0,2,0.9,2,2V128z"/>
<path fill="#FDFCFB" d="M768,128c0,1.1-0.9,2-2,2h-14c-1.1,0-2-0.9-2-2v-14c0-1.1,0.9-2,2-2h14c1.1,0,2,0.9,2,2V128z"/>
<path fill="#FDFCFB" d="M746,128c0,1.1-0.9,2-2,2h-14c-1.1,0-2-0.9-2-2v-14c0-1.1,0.9-2,2-2h14c1.1,0,2,0.9,2,2V128z"/>
<path fill="#FDFCFB" d="M724,128c0,1.1-0.9,2-2,2h-14c-1.1,0-2-0.9-2-2v-14c0-1.1,0.9-2,2-2h14c1.1,0,2,0.9,2,2V128z"/>
<path fill="#FDFCFB" d="M702,128c0,1.1-0.9,2-2,2h-14c-1.1,0-2-0.9-2-2v-14c0-1.1,0.9-2,2-2h14c1.1,0,2,0.9,2,2V128z"/>
<path fill="#FDFCFB" d="M680,128c0,1.1-0.9,2-2,2h-14c-1.1,0-2-0.9-2-2v-14c0-1.1,0.9-2,2-2h14c1.1,0,2,0.9,2,2V128z"/>
<path fill="#FDFCFB" d="M658,128c0,1.1-0.9,2-2,2h-14c-1.1,0-2-0.9-2-2v-14c0-1.1,0.9-2,2-2h14c1.1,0,2,0.9,2,2V128z"/>
<path fill="#FDFCFB" d="M636,128c0,1.1-0.9,2-2,2h-14c-1.1,0-2-0.9-2-2v-14c0-1.1,0.9-2,2-2h14c1.1,0,2,0.9,2,2V128z"/>
<path fill="#FDFCFB" d="M614,128c0,1.1-0.9,2-2,2h-14c-1.1,0-2-0.9-2-2v-14c0-1.1,0.9-2,2-2h14c1.1,0,2,0.9,2,2V128z"/>
<path fill="#FDFCFB" d="M592,128c0,1.1-0.9,2-2,2h-14c-1.1,0-2-0.9-2-2v-14c0-1.1,0.9-2,2-2h14c1.1,0,2,0.9,2,2V128z"/>
<path fill="#FDFCFB" d="M570,128c0,1.1-0.9,2-2,2h-14c-1.1,0-2-0.9-2-2v-14c0-1.1,0.9-2,2-2h14c1.1,0,2,0.9,2,2V128z"/>
<path fill="#F3F4F2" d="M548,128c0,1.1-0.9,2-2,2h-14c-1.1,0-2-0.9-2-2v-14c0-1.1,0.9-2,2-2h14c1.1,0,2,0.9,2,2V128z"/>
<path fill="#FDFCFB" d="M526,128c0,1.1-0.9,2-2,2h-14c-1.1,0-2-0.9-2-2v-14c0-1.1,0.9-2,2-2h14c1.1,0,2,0.9,2,2V128z"/>
<path fill="#FDFCFB" d="M504,128c0,1.1-0.9,2-2,2h-14c-1.1,0-2-0.9-2-2v-14c0-1.1,0.9-2,2-2h14c1.1,0,2,0.9,2,2V128z"/>
<path fill="#FDFCFB" d="M482,128c0,1.1-0.9,2-2,2h-14c-1.1,0-2-0.9-2-2v-14c0-1.1,0.9-2,2-2h14c1.1,0,2,0.9,2,2V128z"/>
<path fill="#FDFCFB" d="M460,128c0,1.1-0.9,2-2,2h-14c-1.1,0-2-0.9-2-2v-14c0-1.1,0.9-2,2-2h14c1.1,0,2,0.9,2,2V128z"/>
<path fill="#FDFCFB" d="M438,128c0,1.1-0.9,2-2,2h-14c-1.1,0-2-0.9-2-2v-14c0-1.1,0.9-2,2-2h14c1.1,0,2,0.9,2,2V128z"/>
<path fill="#FDFCFB" d="M416,128c0,1.1-0.9,2-2,2h-14c-1.1,0-2-0.9-2-2v-14c0-1.1,0.9-2,2-2h14c1.1,0,2,0.9,2,2V128z"/>
<path fill="#F3F4F2" d="M394,128c0,1.1-0.9,2-2,2h-14c-1.1,0-2-0.9-2-2v-14c0-1.1,0.9-2,2-2h14c1.1,0,2,0.9,2,2V128z"/>
<path fill="#FDFCFB" d="M372,128c0,1.1-0.9,2-2,2h-14c-1.1,0-2-0.9-2-2v-14c0-1.1,0.9-2,2-2h14c1.1,0,2,0.9,2,2V128z"/>
<path fill="#FDFCFB" d="M350,128c0,1.1-0.9,2-2,2h-14c-1.1,0-2-0.9-2-2v-14c0-1.1,0.9-2,2-2h14c1.1,0,2,0.9,2,2V128z"/>
<path fill="#FDFCFB" d="M328,128c0,1.1-0.9,2-2,2h-14c-1.1,0-2-0.9-2-2v-14c0-1.1,0.9-2,2-2h14c1.1,0,2,0.9,2,2V128z"/>
<path fill="#FDFCFB" d="M306,128c0,1.1-0.9,2-2,2h-14c-1.1,0-2-0.9-2-2v-14c0-1.1,0.9-2,2-2h14c1.1,0,2,0.9,2,2V128z"/>
<path fill="#FDFCFB" d="M284,128c0,1.1-0.9,2-2,2h-14c-1.1,0-2-0.9-2-2v-14c0-1.1,0.9-2,2-2h14c1.1,0,2,0.9,2,2V128z"/>
<path fill="#FDFCFB" d="M262,128c0,1.1-0.9,2-2,2h-14c-1.1,0-2-0.9-2-2v-14c0-1.1,0.9-2,2-2h14c1.1,0,2,0.9,2,2V128z"/>
<path fill="#FDFCFB" d="M240,128c0,1.1-0.9,2-2,2h-14c-1.1,0-2-0.9-2-2v-14c0-1.1,0.9-2,2-2h14c1.1,0,2,0.9,2,2V128z"/>
<path fill="#FDFCFB" d="M218,128c0,1.1-0.9,2-2,2h-14c-1.1,0-2-0.9-2-2v-14c0-1.1,0.9-2,2-2h14c1.1,0,2,0.9,2,2V128z"/>
<path fill="#FDFCFB" d="M196,128c0,1.1-0.9,2-2,2h-14c-1.1,0-2-0.9-2-2v-14c0-1.1,0.9-2,2-2h14c1.1,0,2,0.9,2,2V128z"/>
<path fill="#FDFCFB" d="M174,128c0,1.1-0.9,2-2,2h-14c-1.1,0-2-0.9-2-2v-14c0-1.1,0.9-2,2-2h14c1.1,0,2,0.9,2,2V128z"/>
<path fill="#FDFCFB" d="M152,128c0,1.1-0.9,2-2,2h-14c-1.1,0-2-0.9-2-2v-14c0-1.1,0.9-2,2-2h14c1.1,0,2,0.9,2,2V128z"/>
<path fill="#FDFCFB" d="M130,128c0,1.1-0.9,2-2,2h-14c-1.1,0-2-0.9-2-2v-14c0-1.1,0.9-2,2-2h14c1.1,0,2,0.9,2,2V128z"/>
<path fill="#FDFCFB" d="M108,128c0,1.1-0.9,2-2,2H92c-1.1,0-2-0.9-2-2v-14c0-1.1,0.9-2,2-2h14c1.1,0,2,0.9,2,2V128z"/>
<path fill="#FDFCFB" d="M86,128c0,1.1-0.9,2-2,2H70c-1.1,0-2-0.9-2-2v-14c0-1.1,0.9-2,2-2h14c1.1,0,2,0.9,2,2V128z"/>
<path fill="#F3F4F2" d="M64,128c0,1.1-0.9,2-2,2H48c-1.1,0-2-0.9-2-2v-14c0-1.1,0.9-2,2-2h14c1.1,0,2,0.9,2,2V128z"/>
<path fill="#FDFCFB" d="M42,128c0,1.1-0.9,2-2,2H26c-1.1,0-2-0.9-2-2v-14c0-1.1,0.9-2,2-2h14c1.1,0,2,0.9,2,2V128z"/>
<path fill="#FDFCFB" d="M20,128c0,1.1-0.9,2-2,2H4c-1.1,0-2-0.9-2-2v-14c0-1.1,0.9-2,2-2h14c1.1,0,2,0.9,2,2V128z"/>
<g>
	<path fill="#FDFCFB" d="M1120,106c0,1.1-0.9,2-2,2h-14c-1.1,0-2-0.9-2-2V92c0-1.1,0.9-2,2-2h14c1.1,0,2,0.9,2,2V106z"/>
</g>
<g>
	<path fill="#FDFCFB" d="M1098,106c0,1.1-0.9,2-2,2h-14c-1.1,0-2-0.9-2-2V92c0-1.1,0.9-2,2-2h14c1.1,0,2,0.9,2,2V106z"/>
</g>
<g>
	<path fill="#FDFCFB" d="M1076,106c0,1.1-0.9,2-2,2h-14c-1.1,0-2-0.9-2-2V92c0-1.1,0.9-2,2-2h14c1.1,0,2,0.9,2,2V106z"/>
</g>
<g>
	<path fill="#FDFCFB" d="M1054,106c0,1.1-0.9,2-2,2h-14c-1.1,0-2-0.9-2-2V92c0-1.1,0.9-2,2-2h14c1.1,0,2,0.9,2,2V106z"/>
</g>
<g>
	<path fill="#FDFCFB" d="M1032,106c0,1.1-0.9,2-2,2h-14c-1.1,0-2-0.9-2-2V92c0-1.1,0.9-2,2-2h14c1.1,0,2,0.9,2,2V106z"/>
</g>
<g>
	<path fill="#FDFCFB" d="M1010,106c0,1.1-0.9,2-2,2h-14c-1.1,0-2-0.9-2-2V92c0-1.1,0.9-2,2-2h14c1.1,0,2,0.9,2,2V106z"/>
</g>
<g>
	<path fill="#FDFCFB" d="M988,106c0,1.1-0.9,2-2,2h-14c-1.1,0-2-0.9-2-2V92c0-1.1,0.9-2,2-2h14c1.1,0,2,0.9,2,2V106z"/>
</g>
<g>
	<path fill="#FDFCFB" d="M966,106c0,1.1-0.9,2-2,2h-14c-1.1,0-2-0.9-2-2V92c0-1.1,0.9-2,2-2h14c1.1,0,2,0.9,2,2V106z"/>
</g>
<g>
	<path fill="#FDFCFB" d="M944,106c0,1.1-0.9,2-2,2h-14c-1.1,0-2-0.9-2-2V92c0-1.1,0.9-2,2-2h14c1.1,0,2,0.9,2,2V106z"/>
</g>
<g>
	<path fill="#FDFCFB" d="M922,106c0,1.1-0.9,2-2,2h-14c-1.1,0-2-0.9-2-2V92c0-1.1,0.9-2,2-2h14c1.1,0,2,0.9,2,2V106z"/>
</g>
<g>
	<path fill="#FDFCFB" d="M900,106c0,1.1-0.9,2-2,2h-14c-1.1,0-2-0.9-2-2V92c0-1.1,0.9-2,2-2h14c1.1,0,2,0.9,2,2V106z"/>
</g>
<g>
	<path fill="#FDFCFB" d="M878,106c0,1.1-0.9,2-2,2h-14c-1.1,0-2-0.9-2-2V92c0-1.1,0.9-2,2-2h14c1.1,0,2,0.9,2,2V106z"/>
</g>
<g>
	<path fill="#FDFCFB" d="M856,106c0,1.1-0.9,2-2,2h-14c-1.1,0-2-0.9-2-2V92c0-1.1,0.9-2,2-2h14c1.1,0,2,0.9,2,2V106z"/>
</g>
<g>
	<path fill="#FDFCFB" d="M834,106c0,1.1-0.9,2-2,2h-14c-1.1,0-2-0.9-2-2V92c0-1.1,0.9-2,2-2h14c1.1,0,2,0.9,2,2V106z"/>
</g>
<g>
	<path fill="#FDFCFB" d="M812,106c0,1.1-0.9,2-2,2h-14c-1.1,0-2-0.9-2-2V92c0-1.1,0.9-2,2-2h14c1.1,0,2,0.9,2,2V106z"/>
</g>
<g>
	<path fill="#FDFCFB" d="M790,106c0,1.1-0.9,2-2,2h-14c-1.1,0-2-0.9-2-2V92c0-1.1,0.9-2,2-2h14c1.1,0,2,0.9,2,2V106z"/>
</g>
<g>
	<path fill="#FDFCFB" d="M768,106c0,1.1-0.9,2-2,2h-14c-1.1,0-2-0.9-2-2V92c0-1.1,0.9-2,2-2h14c1.1,0,2,0.9,2,2V106z"/>
</g>
<g>
	<path fill="#FDFCFB" d="M746,106c0,1.1-0.9,2-2,2h-14c-1.1,0-2-0.9-2-2V92c0-1.1,0.9-2,2-2h14c1.1,0,2,0.9,2,2V106z"/>
</g>
<g>
	<path fill="#FDFCFB" d="M724,106c0,1.1-0.9,2-2,2h-14c-1.1,0-2-0.9-2-2V92c0-1.1,0.9-2,2-2h14c1.1,0,2,0.9,2,2V106z"/>
</g>
<g>
	<path fill="#FDFCFB" d="M702,106c0,1.1-0.9,2-2,2h-14c-1.1,0-2-0.9-2-2V92c0-1.1,0.9-2,2-2h14c1.1,0,2,0.9,2,2V106z"/>
</g>
<g>
	<path fill="#FDFCFB" d="M680,106c0,1.1-0.9,2-2,2h-14c-1.1,0-2-0.9-2-2V92c0-1.1,0.9-2,2-2h14c1.1,0,2,0.9,2,2V106z"/>
</g>
<g>
	<path fill="#FDFCFB" d="M658,106c0,1.1-0.9,2-2,2h-14c-1.1,0-2-0.9-2-2V92c0-1.1,0.9-2,2-2h14c1.1,0,2,0.9,2,2V106z"/>
</g>
<g>
	<path fill="#F3F4F2" d="M636,106c0,1.1-0.9,2-2,2h-14c-1.1,0-2-0.9-2-2V92c0-1.1,0.9-2,2-2h14c1.1,0,2,0.9,2,2V106z"/>
</g>
<g>
	<path fill="#FDFCFB" d="M614,106c0,1.1-0.9,2-2,2h-14c-1.1,0-2-0.9-2-2V92c0-1.1,0.9-2,2-2h14c1.1,0,2,0.9,2,2V106z"/>
</g>
<g>
	<path fill="#FDFCFB" d="M592,106c0,1.1-0.9,2-2,2h-14c-1.1,0-2-0.9-2-2V92c0-1.1,0.9-2,2-2h14c1.1,0,2,0.9,2,2V106z"/>
</g>
<g>
	<path fill="#FDFCFB" d="M570,106c0,1.1-0.9,2-2,2h-14c-1.1,0-2-0.9-2-2V92c0-1.1,0.9-2,2-2h14c1.1,0,2,0.9,2,2V106z"/>
</g>
<g>
	<path fill="#FDFCFB" d="M548,106c0,1.1-0.9,2-2,2h-14c-1.1,0-2-0.9-2-2V92c0-1.1,0.9-2,2-2h14c1.1,0,2,0.9,2,2V106z"/>
</g>
<g>
	<path fill="#FDFCFB" d="M526,106c0,1.1-0.9,2-2,2h-14c-1.1,0-2-0.9-2-2V92c0-1.1,0.9-2,2-2h14c1.1,0,2,0.9,2,2V106z"/>
</g>
<g>
	<path fill="#FDFCFB" d="M504,106c0,1.1-0.9,2-2,2h-14c-1.1,0-2-0.9-2-2V92c0-1.1,0.9-2,2-2h14c1.1,0,2,0.9,2,2V106z"/>
</g>
<g>
	<path fill="#FDFCFB" d="M482,106c0,1.1-0.9,2-2,2h-14c-1.1,0-2-0.9-2-2V92c0-1.1,0.9-2,2-2h14c1.1,0,2,0.9,2,2V106z"/>
</g>
<g>
	<path fill="#FDFCFB" d="M460,106c0,1.1-0.9,2-2,2h-14c-1.1,0-2-0.9-2-2V92c0-1.1,0.9-2,2-2h14c1.1,0,2,0.9,2,2V106z"/>
</g>
<g>
	<path fill="#FDFCFB" d="M438,106c0,1.1-0.9,2-2,2h-14c-1.1,0-2-0.9-2-2V92c0-1.1,0.9-2,2-2h14c1.1,0,2,0.9,2,2V106z"/>
</g>
<g>
	<path fill="#FDFCFB" d="M416,106c0,1.1-0.9,2-2,2h-14c-1.1,0-2-0.9-2-2V92c0-1.1,0.9-2,2-2h14c1.1,0,2,0.9,2,2V106z"/>
</g>
<g>
	<path fill="#FDFCFB" d="M394,106c0,1.1-0.9,2-2,2h-14c-1.1,0-2-0.9-2-2V92c0-1.1,0.9-2,2-2h14c1.1,0,2,0.9,2,2V106z"/>
</g>
<g>
	<path fill="#FDFCFB" d="M372,106c0,1.1-0.9,2-2,2h-14c-1.1,0-2-0.9-2-2V92c0-1.1,0.9-2,2-2h14c1.1,0,2,0.9,2,2V106z"/>
</g>
<g>
	<path fill="#FDFCFB" d="M350,106c0,1.1-0.9,2-2,2h-14c-1.1,0-2-0.9-2-2V92c0-1.1,0.9-2,2-2h14c1.1,0,2,0.9,2,2V106z"/>
</g>
<g>
	<path fill="#FDFCFB" d="M328,106c0,1.1-0.9,2-2,2h-14c-1.1,0-2-0.9-2-2V92c0-1.1,0.9-2,2-2h14c1.1,0,2,0.9,2,2V106z"/>
</g>
<g>
	<path fill="#FDFCFB" d="M306,106c0,1.1-0.9,2-2,2h-14c-1.1,0-2-0.9-2-2V92c0-1.1,0.9-2,2-2h14c1.1,0,2,0.9,2,2V106z"/>
</g>
<g>
	<path fill="#FDFCFB" d="M284,106c0,1.1-0.9,2-2,2h-14c-1.1,0-2-0.9-2-2V92c0-1.1,0.9-2,2-2h14c1.1,0,2,0.9,2,2V106z"/>
</g>
<g>
	<path fill="#FDFCFB" d="M262,106c0,1.1-0.9,2-2,2h-14c-1.1,0-2-0.9-2-2V92c0-1.1,0.9-2,2-2h14c1.1,0,2,0.9,2,2V106z"/>
</g>
<g>
	<path fill="#FDFCFB" d="M240,106c0,1.1-0.9,2-2,2h-14c-1.1,0-2-0.9-2-2V92c0-1.1,0.9-2,2-2h14c1.1,0,2,0.9,2,2V106z"/>
</g>
<g>
	<path fill="#FDFCFB" d="M218,106c0,1.1-0.9,2-2,2h-14c-1.1,0-2-0.9-2-2V92c0-1.1,0.9-2,2-2h14c1.1,0,2,0.9,2,2V106z"/>
</g>
<g>
	<path fill="#FDFCFB" d="M196,106c0,1.1-0.9,2-2,2h-14c-1.1,0-2-0.9-2-2V92c0-1.1,0.9-2,2-2h14c1.1,0,2,0.9,2,2V106z"/>
</g>
<g>
	<path fill="#FDFCFB" d="M174,106c0,1.1-0.9,2-2,2h-14c-1.1,0-2-0.9-2-2V92c0-1.1,0.9-2,2-2h14c1.1,0,2,0.9,2,2V106z"/>
</g>
<g>
	<path fill="#FDFCFB" d="M152,106c0,1.1-0.9,2-2,2h-14c-1.1,0-2-0.9-2-2V92c0-1.1,0.9-2,2-2h14c1.1,0,2,0.9,2,2V106z"/>
</g>
<g>
	<path fill="#FDFCFB" d="M130,106c0,1.1-0.9,2-2,2h-14c-1.1,0-2-0.9-2-2V92c0-1.1,0.9-2,2-2h14c1.1,0,2,0.9,2,2V106z"/>
</g>
<g>
	<path fill="#FDFCFB" d="M108,106c0,1.1-0.9,2-2,2H92c-1.1,0-2-0.9-2-2V92c0-1.1,0.9-2,2-2h14c1.1,0,2,0.9,2,2V106z"/>
</g>
<g>
	<path fill="#FDFCFB" d="M86,106c0,1.1-0.9,2-2,2H70c-1.1,0-2-0.9-2-2V92c0-1.1,0.9-2,2-2h14c1.1,0,2,0.9,2,2V106z"/>
</g>
<g>
	<path fill="#FDFCFB" d="M64,106c0,1.1-0.9,2-2,2H48c-1.1,0-2-0.9-2-2V92c0-1.1,0.9-2,2-2h14c1.1,0,2,0.9,2,2V106z"/>
</g>
<g>
	<path fill="#FDFCFB" d="M42,106c0,1.1-0.9,2-2,2H26c-1.1,0-2-0.9-2-2V92c0-1.1,0.9-2,2-2h14c1.1,0,2,0.9,2,2V106z"/>
</g>
<g>
	<path fill="#FDFCFB" d="M20,106c0,1.1-0.9,2-2,2H4c-1.1,0-2-0.9-2-2V92c0-1.1,0.9-2,2-2h14c1.1,0,2,0.9,2,2V106z"/>
</g>
<g>
	<path fill="#FDFCFB" d="M1120,84c0,1.1-0.9,2-2,2h-14c-1.1,0-2-0.9-2-2V70c0-1.1,0.9-2,2-2h14c1.1,0,2,0.9,2,2V84z"/>
</g>
<g>
	<path fill="#FDFCFB" d="M1098,84c0,1.1-0.9,2-2,2h-14c-1.1,0-2-0.9-2-2V70c0-1.1,0.9-2,2-2h14c1.1,0,2,0.9,2,2V84z"/>
</g>
<g>
	<path fill="#FDFCFB" d="M1076,84c0,1.1-0.9,2-2,2h-14c-1.1,0-2-0.9-2-2V70c0-1.1,0.9-2,2-2h14c1.1,0,2,0.9,2,2V84z"/>
</g>
<g>
	<path fill="#FDFCFB" d="M1054,84c0,1.1-0.9,2-2,2h-14c-1.1,0-2-0.9-2-2V70c0-1.1,0.9-2,2-2h14c1.1,0,2,0.9,2,2V84z"/>
</g>
<g>
	<path fill="#FDFCFB" d="M1032,84c0,1.1-0.9,2-2,2h-14c-1.1,0-2-0.9-2-2V70c0-1.1,0.9-2,2-2h14c1.1,0,2,0.9,2,2V84z"/>
</g>
<g>
	<path fill="#FDFCFB" d="M1010,84c0,1.1-0.9,2-2,2h-14c-1.1,0-2-0.9-2-2V70c0-1.1,0.9-2,2-2h14c1.1,0,2,0.9,2,2V84z"/>
</g>
<g>
	<path fill="#FDFCFB" d="M988,84c0,1.1-0.9,2-2,2h-14c-1.1,0-2-0.9-2-2V70c0-1.1,0.9-2,2-2h14c1.1,0,2,0.9,2,2V84z"/>
</g>
<g>
	<path fill="#FDFCFB" d="M966,84c0,1.1-0.9,2-2,2h-14c-1.1,0-2-0.9-2-2V70c0-1.1,0.9-2,2-2h14c1.1,0,2,0.9,2,2V84z"/>
</g>
<g>
	<path fill="#FDFCFB" d="M944,84c0,1.1-0.9,2-2,2h-14c-1.1,0-2-0.9-2-2V70c0-1.1,0.9-2,2-2h14c1.1,0,2,0.9,2,2V84z"/>
</g>
<g>
	<path fill="#FDFCFB" d="M922,84c0,1.1-0.9,2-2,2h-14c-1.1,0-2-0.9-2-2V70c0-1.1,0.9-2,2-2h14c1.1,0,2,0.9,2,2V84z"/>
</g>
<g>
	<path fill="#FDFCFB" d="M900,84c0,1.1-0.9,2-2,2h-14c-1.1,0-2-0.9-2-2V70c0-1.1,0.9-2,2-2h14c1.1,0,2,0.9,2,2V84z"/>
</g>
<g>
	<path fill="#FDFCFB" d="M878,84c0,1.1-0.9,2-2,2h-14c-1.1,0-2-0.9-2-2V70c0-1.1,0.9-2,2-2h14c1.1,0,2,0.9,2,2V84z"/>
</g>
<g>
	<path fill="#FDFCFB" d="M856,84c0,1.1-0.9,2-2,2h-14c-1.1,0-2-0.9-2-2V70c0-1.1,0.9-2,2-2h14c1.1,0,2,0.9,2,2V84z"/>
</g>
<g>
	<path fill="#FDFCFB" d="M834,84c0,1.1-0.9,2-2,2h-14c-1.1,0-2-0.9-2-2V70c0-1.1,0.9-2,2-2h14c1.1,0,2,0.9,2,2V84z"/>
</g>
<g>
	<path fill="#FDFCFB" d="M812,84c0,1.1-0.9,2-2,2h-14c-1.1,0-2-0.9-2-2V70c0-1.1,0.9-2,2-2h14c1.1,0,2,0.9,2,2V84z"/>
</g>
<g>
	<path fill="#FDFCFB" d="M790,84c0,1.1-0.9,2-2,2h-14c-1.1,0-2-0.9-2-2V70c0-1.1,0.9-2,2-2h14c1.1,0,2,0.9,2,2V84z"/>
</g>
<g>
	<path fill="#FDFCFB" d="M768,84c0,1.1-0.9,2-2,2h-14c-1.1,0-2-0.9-2-2V70c0-1.1,0.9-2,2-2h14c1.1,0,2,0.9,2,2V84z"/>
</g>
<g>
	<path fill="#FDFCFB" d="M746,84c0,1.1-0.9,2-2,2h-14c-1.1,0-2-0.9-2-2V70c0-1.1,0.9-2,2-2h14c1.1,0,2,0.9,2,2V84z"/>
</g>
<g>
	<path fill="#FDFCFB" d="M724,84c0,1.1-0.9,2-2,2h-14c-1.1,0-2-0.9-2-2V70c0-1.1,0.9-2,2-2h14c1.1,0,2,0.9,2,2V84z"/>
</g>
<g>
	<path fill="#FDFCFB" d="M702,84c0,1.1-0.9,2-2,2h-14c-1.1,0-2-0.9-2-2V70c0-1.1,0.9-2,2-2h14c1.1,0,2,0.9,2,2V84z"/>
</g>
<g>
	<path fill="#FDFCFB" d="M680,84c0,1.1-0.9,2-2,2h-14c-1.1,0-2-0.9-2-2V70c0-1.1,0.9-2,2-2h14c1.1,0,2,0.9,2,2V84z"/>
</g>
<g>
	<path fill="#FDFCFB" d="M658,84c0,1.1-0.9,2-2,2h-14c-1.1,0-2-0.9-2-2V70c0-1.1,0.9-2,2-2h14c1.1,0,2,0.9,2,2V84z"/>
</g>
<g>
	<path fill="#FDFCFB" d="M636,84c0,1.1-0.9,2-2,2h-14c-1.1,0-2-0.9-2-2V70c0-1.1,0.9-2,2-2h14c1.1,0,2,0.9,2,2V84z"/>
</g>
<g>
	<path fill="#FDFCFB" d="M614,84c0,1.1-0.9,2-2,2h-14c-1.1,0-2-0.9-2-2V70c0-1.1,0.9-2,2-2h14c1.1,0,2,0.9,2,2V84z"/>
</g>
<g>
	<path fill="#FDFCFB" d="M592,84c0,1.1-0.9,2-2,2h-14c-1.1,0-2-0.9-2-2V70c0-1.1,0.9-2,2-2h14c1.1,0,2,0.9,2,2V84z"/>
</g>
<g>
	<path fill="#FDFCFB" d="M570,84c0,1.1-0.9,2-2,2h-14c-1.1,0-2-0.9-2-2V70c0-1.1,0.9-2,2-2h14c1.1,0,2,0.9,2,2V84z"/>
</g>
<g>
	<path fill="#FDFCFB" d="M548,84c0,1.1-0.9,2-2,2h-14c-1.1,0-2-0.9-2-2V70c0-1.1,0.9-2,2-2h14c1.1,0,2,0.9,2,2V84z"/>
</g>
<g>
	<path fill="#FDFCFB" d="M526,84c0,1.1-0.9,2-2,2h-14c-1.1,0-2-0.9-2-2V70c0-1.1,0.9-2,2-2h14c1.1,0,2,0.9,2,2V84z"/>
</g>
<g>
	<path fill="#FDFCFB" d="M504,84c0,1.1-0.9,2-2,2h-14c-1.1,0-2-0.9-2-2V70c0-1.1,0.9-2,2-2h14c1.1,0,2,0.9,2,2V84z"/>
</g>
<g>
	<path fill="#FDFCFB" d="M482,84c0,1.1-0.9,2-2,2h-14c-1.1,0-2-0.9-2-2V70c0-1.1,0.9-2,2-2h14c1.1,0,2,0.9,2,2V84z"/>
</g>
<g>
	<path fill="#FDFCFB" d="M460,84c0,1.1-0.9,2-2,2h-14c-1.1,0-2-0.9-2-2V70c0-1.1,0.9-2,2-2h14c1.1,0,2,0.9,2,2V84z"/>
</g>
<g>
	<path fill="#FDFCFB" d="M438,84c0,1.1-0.9,2-2,2h-14c-1.1,0-2-0.9-2-2V70c0-1.1,0.9-2,2-2h14c1.1,0,2,0.9,2,2V84z"/>
</g>
<g>
	<path fill="#FDFCFB" d="M416,84c0,1.1-0.9,2-2,2h-14c-1.1,0-2-0.9-2-2V70c0-1.1,0.9-2,2-2h14c1.1,0,2,0.9,2,2V84z"/>
</g>
<g>
	<path fill="#FDFCFB" d="M394,84c0,1.1-0.9,2-2,2h-14c-1.1,0-2-0.9-2-2V70c0-1.1,0.9-2,2-2h14c1.1,0,2,0.9,2,2V84z"/>
</g>
<g>
	<path fill="#FDFCFB" d="M372,84c0,1.1-0.9,2-2,2h-14c-1.1,0-2-0.9-2-2V70c0-1.1,0.9-2,2-2h14c1.1,0,2,0.9,2,2V84z"/>
</g>
<g>
	<path fill="#FDFCFB" d="M350,84c0,1.1-0.9,2-2,2h-14c-1.1,0-2-0.9-2-2V70c0-1.1,0.9-2,2-2h14c1.1,0,2,0.9,2,2V84z"/>
</g>
<g>
	<path fill="#FDFCFB" d="M328,84c0,1.1-0.9,2-2,2h-14c-1.1,0-2-0.9-2-2V70c0-1.1,0.9-2,2-2h14c1.1,0,2,0.9,2,2V84z"/>
</g>
<g>
	<path fill="#FDFCFB" d="M306,84c0,1.1-0.9,2-2,2h-14c-1.1,0-2-0.9-2-2V70c0-1.1,0.9-2,2-2h14c1.1,0,2,0.9,2,2V84z"/>
</g>
<g>
	<path fill="#FDFCFB" d="M284,84c0,1.1-0.9,2-2,2h-14c-1.1,0-2-0.9-2-2V70c0-1.1,0.9-2,2-2h14c1.1,0,2,0.9,2,2V84z"/>
</g>
<g>
	<path fill="#FDFCFB" d="M262,84c0,1.1-0.9,2-2,2h-14c-1.1,0-2-0.9-2-2V70c0-1.1,0.9-2,2-2h14c1.1,0,2,0.9,2,2V84z"/>
</g>
<g>
	<path fill="#FDFCFB" d="M240,84c0,1.1-0.9,2-2,2h-14c-1.1,0-2-0.9-2-2V70c0-1.1,0.9-2,2-2h14c1.1,0,2,0.9,2,2V84z"/>
</g>
<g>
	<path fill="#FDFCFB" d="M218,84c0,1.1-0.9,2-2,2h-14c-1.1,0-2-0.9-2-2V70c0-1.1,0.9-2,2-2h14c1.1,0,2,0.9,2,2V84z"/>
</g>
<g>
	<path fill="#FDFCFB" d="M196,84c0,1.1-0.9,2-2,2h-14c-1.1,0-2-0.9-2-2V70c0-1.1,0.9-2,2-2h14c1.1,0,2,0.9,2,2V84z"/>
</g>
<g>
	<path fill="#F3F4F2" d="M174,84c0,1.1-0.9,2-2,2h-14c-1.1,0-2-0.9-2-2V70c0-1.1,0.9-2,2-2h14c1.1,0,2,0.9,2,2V84z"/>
</g>
<g>
	<path fill="#FDFCFB" d="M152,84c0,1.1-0.9,2-2,2h-14c-1.1,0-2-0.9-2-2V70c0-1.1,0.9-2,2-2h14c1.1,0,2,0.9,2,2V84z"/>
</g>
<g>
	<path fill="#FDFCFB" d="M130,84c0,1.1-0.9,2-2,2h-14c-1.1,0-2-0.9-2-2V70c0-1.1,0.9-2,2-2h14c1.1,0,2,0.9,2,2V84z"/>
</g>
<g>
	<path fill="#FDFCFB" d="M108,84c0,1.1-0.9,2-2,2H92c-1.1,0-2-0.9-2-2V70c0-1.1,0.9-2,2-2h14c1.1,0,2,0.9,2,2V84z"/>
</g>
<g>
	<path fill="#FDFCFB" d="M86,84c0,1.1-0.9,2-2,2H70c-1.1,0-2-0.9-2-2V70c0-1.1,0.9-2,2-2h14c1.1,0,2,0.9,2,2V84z"/>
</g>
<g>
	<path fill="#FDFCFB" d="M64,84c0,1.1-0.9,2-2,2H48c-1.1,0-2-0.9-2-2V70c0-1.1,0.9-2,2-2h14c1.1,0,2,0.9,2,2V84z"/>
</g>
<g>
	<path fill="#FDFCFB" d="M42,84c0,1.1-0.9,2-2,2H26c-1.1,0-2-0.9-2-2V70c0-1.1,0.9-2,2-2h14c1.1,0,2,0.9,2,2V84z"/>
</g>
<g>
	<path fill="#FDFCFB" d="M20,84c0,1.1-0.9,2-2,2H4c-1.1,0-2-0.9-2-2V70c0-1.1,0.9-2,2-2h14c1.1,0,2,0.9,2,2V84z"/>
</g>
<g>
	<path fill="#FDFCFB" d="M1120,62c0,1.1-0.9,2-2,2h-14c-1.1,0-2-0.9-2-2V48c0-1.1,0.9-2,2-2h14c1.1,0,2,0.9,2,2V62z"/>
</g>
<g>
	<path fill="#FDFCFB" d="M1098,62c0,1.1-0.9,2-2,2h-14c-1.1,0-2-0.9-2-2V48c0-1.1,0.9-2,2-2h14c1.1,0,2,0.9,2,2V62z"/>
</g>
<g>
	<path fill="#F3F4F2" d="M1076,62c0,1.1-0.9,2-2,2h-14c-1.1,0-2-0.9-2-2V48c0-1.1,0.9-2,2-2h14c1.1,0,2,0.9,2,2V62z"/>
</g>
<g>
	<path fill="#FDFCFB" d="M1054,62c0,1.1-0.9,2-2,2h-14c-1.1,0-2-0.9-2-2V48c0-1.1,0.9-2,2-2h14c1.1,0,2,0.9,2,2V62z"/>
</g>
<g>
	<path fill="#FDFCFB" d="M1032,62c0,1.1-0.9,2-2,2h-14c-1.1,0-2-0.9-2-2V48c0-1.1,0.9-2,2-2h14c1.1,0,2,0.9,2,2V62z"/>
</g>
<g>
	<path fill="#FDFCFB" d="M1010,62c0,1.1-0.9,2-2,2h-14c-1.1,0-2-0.9-2-2V48c0-1.1,0.9-2,2-2h14c1.1,0,2,0.9,2,2V62z"/>
</g>
<g>
	<path fill="#FDFCFB" d="M988,62c0,1.1-0.9,2-2,2h-14c-1.1,0-2-0.9-2-2V48c0-1.1,0.9-2,2-2h14c1.1,0,2,0.9,2,2V62z"/>
</g>
<g>
	<path fill="#FDFCFB" d="M966,62c0,1.1-0.9,2-2,2h-14c-1.1,0-2-0.9-2-2V48c0-1.1,0.9-2,2-2h14c1.1,0,2,0.9,2,2V62z"/>
</g>
<g>
	<path fill="#FDFCFB" d="M944,62c0,1.1-0.9,2-2,2h-14c-1.1,0-2-0.9-2-2V48c0-1.1,0.9-2,2-2h14c1.1,0,2,0.9,2,2V62z"/>
</g>
<g>
	<path fill="#FDFCFB" d="M922,62c0,1.1-0.9,2-2,2h-14c-1.1,0-2-0.9-2-2V48c0-1.1,0.9-2,2-2h14c1.1,0,2,0.9,2,2V62z"/>
</g>
<g>
	<path fill="#FDFCFB" d="M900,62c0,1.1-0.9,2-2,2h-14c-1.1,0-2-0.9-2-2V48c0-1.1,0.9-2,2-2h14c1.1,0,2,0.9,2,2V62z"/>
</g>
<g>
	<path fill="#FDFCFB" d="M878,62c0,1.1-0.9,2-2,2h-14c-1.1,0-2-0.9-2-2V48c0-1.1,0.9-2,2-2h14c1.1,0,2,0.9,2,2V62z"/>
</g>
<g>
	<path fill="#F3F4F2" d="M856,62c0,1.1-0.9,2-2,2h-14c-1.1,0-2-0.9-2-2V48c0-1.1,0.9-2,2-2h14c1.1,0,2,0.9,2,2V62z"/>
</g>
<g>
	<path fill="#FDFCFB" d="M834,62c0,1.1-0.9,2-2,2h-14c-1.1,0-2-0.9-2-2V48c0-1.1,0.9-2,2-2h14c1.1,0,2,0.9,2,2V62z"/>
</g>
<g>
	<path fill="#FDFCFB" d="M812,62c0,1.1-0.9,2-2,2h-14c-1.1,0-2-0.9-2-2V48c0-1.1,0.9-2,2-2h14c1.1,0,2,0.9,2,2V62z"/>
</g>
<g>
	<path fill="#FDFCFB" d="M790,62c0,1.1-0.9,2-2,2h-14c-1.1,0-2-0.9-2-2V48c0-1.1,0.9-2,2-2h14c1.1,0,2,0.9,2,2V62z"/>
</g>
<g>
	<path fill="#FDFCFB" d="M768,62c0,1.1-0.9,2-2,2h-14c-1.1,0-2-0.9-2-2V48c0-1.1,0.9-2,2-2h14c1.1,0,2,0.9,2,2V62z"/>
</g>
<g>
	<path fill="#FDFCFB" d="M746,62c0,1.1-0.9,2-2,2h-14c-1.1,0-2-0.9-2-2V48c0-1.1,0.9-2,2-2h14c1.1,0,2,0.9,2,2V62z"/>
</g>
<g>
	<path fill="#FDFCFB" d="M724,62c0,1.1-0.9,2-2,2h-14c-1.1,0-2-0.9-2-2V48c0-1.1,0.9-2,2-2h14c1.1,0,2,0.9,2,2V62z"/>
</g>
<g>
	<path fill="#FDFCFB" d="M702,62c0,1.1-0.9,2-2,2h-14c-1.1,0-2-0.9-2-2V48c0-1.1,0.9-2,2-2h14c1.1,0,2,0.9,2,2V62z"/>
</g>
<g>
	<path fill="#FDFCFB" d="M680,62c0,1.1-0.9,2-2,2h-14c-1.1,0-2-0.9-2-2V48c0-1.1,0.9-2,2-2h14c1.1,0,2,0.9,2,2V62z"/>
</g>
<g>
	<path fill="#FDFCFB" d="M658,62c0,1.1-0.9,2-2,2h-14c-1.1,0-2-0.9-2-2V48c0-1.1,0.9-2,2-2h14c1.1,0,2,0.9,2,2V62z"/>
</g>
<g>
	<path fill="#FDFCFB" d="M636,62c0,1.1-0.9,2-2,2h-14c-1.1,0-2-0.9-2-2V48c0-1.1,0.9-2,2-2h14c1.1,0,2,0.9,2,2V62z"/>
</g>
<g>
	<path fill="#FDFCFB" d="M614,62c0,1.1-0.9,2-2,2h-14c-1.1,0-2-0.9-2-2V48c0-1.1,0.9-2,2-2h14c1.1,0,2,0.9,2,2V62z"/>
</g>
<g>
	<path fill="#FDFCFB" d="M592,62c0,1.1-0.9,2-2,2h-14c-1.1,0-2-0.9-2-2V48c0-1.1,0.9-2,2-2h14c1.1,0,2,0.9,2,2V62z"/>
</g>
<g>
	<path fill="#FDFCFB" d="M570,62c0,1.1-0.9,2-2,2h-14c-1.1,0-2-0.9-2-2V48c0-1.1,0.9-2,2-2h14c1.1,0,2,0.9,2,2V62z"/>
</g>
<g>
	<path fill="#FDFCFB" d="M548,62c0,1.1-0.9,2-2,2h-14c-1.1,0-2-0.9-2-2V48c0-1.1,0.9-2,2-2h14c1.1,0,2,0.9,2,2V62z"/>
</g>
<g>
	<path fill="#FDFCFB" d="M526,62c0,1.1-0.9,2-2,2h-14c-1.1,0-2-0.9-2-2V48c0-1.1,0.9-2,2-2h14c1.1,0,2,0.9,2,2V62z"/>
</g>
<g>
	<path fill="#FDFCFB" d="M504,62c0,1.1-0.9,2-2,2h-14c-1.1,0-2-0.9-2-2V48c0-1.1,0.9-2,2-2h14c1.1,0,2,0.9,2,2V62z"/>
</g>
<g>
	<path fill="#FDFCFB" d="M482,62c0,1.1-0.9,2-2,2h-14c-1.1,0-2-0.9-2-2V48c0-1.1,0.9-2,2-2h14c1.1,0,2,0.9,2,2V62z"/>
</g>
<g>
	<path fill="#FDFCFB" d="M460,62c0,1.1-0.9,2-2,2h-14c-1.1,0-2-0.9-2-2V48c0-1.1,0.9-2,2-2h14c1.1,0,2,0.9,2,2V62z"/>
</g>
<g>
	<path fill="#FDFCFB" d="M438,62c0,1.1-0.9,2-2,2h-14c-1.1,0-2-0.9-2-2V48c0-1.1,0.9-2,2-2h14c1.1,0,2,0.9,2,2V62z"/>
</g>
<g>
	<path fill="#FDFCFB" d="M416,62c0,1.1-0.9,2-2,2h-14c-1.1,0-2-0.9-2-2V48c0-1.1,0.9-2,2-2h14c1.1,0,2,0.9,2,2V62z"/>
</g>
<g>
	<path fill="#FDFCFB" d="M394,62c0,1.1-0.9,2-2,2h-14c-1.1,0-2-0.9-2-2V48c0-1.1,0.9-2,2-2h14c1.1,0,2,0.9,2,2V62z"/>
</g>
<g>
	<path fill="#FDFCFB" d="M372,62c0,1.1-0.9,2-2,2h-14c-1.1,0-2-0.9-2-2V48c0-1.1,0.9-2,2-2h14c1.1,0,2,0.9,2,2V62z"/>
</g>
<g>
	<path fill="#FDFCFB" d="M350,62c0,1.1-0.9,2-2,2h-14c-1.1,0-2-0.9-2-2V48c0-1.1,0.9-2,2-2h14c1.1,0,2,0.9,2,2V62z"/>
</g>
<g>
	<path fill="#FDFCFB" d="M328,62c0,1.1-0.9,2-2,2h-14c-1.1,0-2-0.9-2-2V48c0-1.1,0.9-2,2-2h14c1.1,0,2,0.9,2,2V62z"/>
</g>
<g>
	<path fill="#F3F4F2" d="M306,62c0,1.1-0.9,2-2,2h-14c-1.1,0-2-0.9-2-2V48c0-1.1,0.9-2,2-2h14c1.1,0,2,0.9,2,2V62z"/>
</g>
<g>
	<path fill="#FDFCFB" d="M284,62c0,1.1-0.9,2-2,2h-14c-1.1,0-2-0.9-2-2V48c0-1.1,0.9-2,2-2h14c1.1,0,2,0.9,2,2V62z"/>
</g>
<g>
	<path fill="#FDFCFB" d="M262,62c0,1.1-0.9,2-2,2h-14c-1.1,0-2-0.9-2-2V48c0-1.1,0.9-2,2-2h14c1.1,0,2,0.9,2,2V62z"/>
</g>
<g>
	<path fill="#FDFCFB" d="M240,62c0,1.1-0.9,2-2,2h-14c-1.1,0-2-0.9-2-2V48c0-1.1,0.9-2,2-2h14c1.1,0,2,0.9,2,2V62z"/>
</g>
<g>
	<path fill="#E3E5E2" d="M218,62c0,1.1-0.9,2-2,2h-14c-1.1,0-2-0.9-2-2V48c0-1.1,0.9-2,2-2h14c1.1,0,2,0.9,2,2V62z"/>
</g>
<g>
	<path fill="#FDFCFB" d="M196,62c0,1.1-0.9,2-2,2h-14c-1.1,0-2-0.9-2-2V48c0-1.1,0.9-2,2-2h14c1.1,0,2,0.9,2,2V62z"/>
</g>
<g>
	<path fill="#FDFCFB" d="M174,62c0,1.1-0.9,2-2,2h-14c-1.1,0-2-0.9-2-2V48c0-1.1,0.9-2,2-2h14c1.1,0,2,0.9,2,2V62z"/>
</g>
<g>
	<path fill="#FDFCFB" d="M152,62c0,1.1-0.9,2-2,2h-14c-1.1,0-2-0.9-2-2V48c0-1.1,0.9-2,2-2h14c1.1,0,2,0.9,2,2V62z"/>
</g>
<g>
	<path fill="#FDFCFB" d="M130,62c0,1.1-0.9,2-2,2h-14c-1.1,0-2-0.9-2-2V48c0-1.1,0.9-2,2-2h14c1.1,0,2,0.9,2,2V62z"/>
</g>
<g>
	<path fill="#FDFCFB" d="M108,62c0,1.1-0.9,2-2,2H92c-1.1,0-2-0.9-2-2V48c0-1.1,0.9-2,2-2h14c1.1,0,2,0.9,2,2V62z"/>
</g>
<g>
	<path fill="#FDFCFB" d="M86,62c0,1.1-0.9,2-2,2H70c-1.1,0-2-0.9-2-2V48c0-1.1,0.9-2,2-2h14c1.1,0,2,0.9,2,2V62z"/>
</g>
<g>
	<path fill="#FDFCFB" d="M64,62c0,1.1-0.9,2-2,2H48c-1.1,0-2-0.9-2-2V48c0-1.1,0.9-2,2-2h14c1.1,0,2,0.9,2,2V62z"/>
</g>
<g>
	<path fill="#FDFCFB" d="M42,62c0,1.1-0.9,2-2,2H26c-1.1,0-2-0.9-2-2V48c0-1.1,0.9-2,2-2h14c1.1,0,2,0.9,2,2V62z"/>
</g>
<g>
	<path fill="#FDFCFB" d="M20,62c0,1.1-0.9,2-2,2H4c-1.1,0-2-0.9-2-2V48c0-1.1,0.9-2,2-2h14c1.1,0,2,0.9,2,2V62z"/>
</g>
<g>
	<path fill="#FDFCFB" d="M1120,40c0,1.1-0.9,2-2,2h-14c-1.1,0-2-0.9-2-2V26c0-1.1,0.9-2,2-2h14c1.1,0,2,0.9,2,2V40z"/>
</g>
<g>
	<path fill="#FDFCFB" d="M1098,40c0,1.1-0.9,2-2,2h-14c-1.1,0-2-0.9-2-2V26c0-1.1,0.9-2,2-2h14c1.1,0,2,0.9,2,2V40z"/>
</g>
<g>
	<path fill="#FDFCFB" d="M1076,40c0,1.1-0.9,2-2,2h-14c-1.1,0-2-0.9-2-2V26c0-1.1,0.9-2,2-2h14c1.1,0,2,0.9,2,2V40z"/>
</g>
<g>
	<path fill="#FDFCFB" d="M1054,40c0,1.1-0.9,2-2,2h-14c-1.1,0-2-0.9-2-2V26c0-1.1,0.9-2,2-2h14c1.1,0,2,0.9,2,2V40z"/>
</g>
<g>
	<path fill="#FDFCFB" d="M1032,40c0,1.1-0.9,2-2,2h-14c-1.1,0-2-0.9-2-2V26c0-1.1,0.9-2,2-2h14c1.1,0,2,0.9,2,2V40z"/>
</g>
<g>
	<path fill="#FDFCFB" d="M1010,40c0,1.1-0.9,2-2,2h-14c-1.1,0-2-0.9-2-2V26c0-1.1,0.9-2,2-2h14c1.1,0,2,0.9,2,2V40z"/>
</g>
<g>
	<path fill="#FDFCFB" d="M988,40c0,1.1-0.9,2-2,2h-14c-1.1,0-2-0.9-2-2V26c0-1.1,0.9-2,2-2h14c1.1,0,2,0.9,2,2V40z"/>
</g>
<g>
	<path fill="#FDFCFB" d="M966,40c0,1.1-0.9,2-2,2h-14c-1.1,0-2-0.9-2-2V26c0-1.1,0.9-2,2-2h14c1.1,0,2,0.9,2,2V40z"/>
</g>
<g>
	<path fill="#FDFCFB" d="M944,40c0,1.1-0.9,2-2,2h-14c-1.1,0-2-0.9-2-2V26c0-1.1,0.9-2,2-2h14c1.1,0,2,0.9,2,2V40z"/>
</g>
<g>
	<path fill="#FDFCFB" d="M922,40c0,1.1-0.9,2-2,2h-14c-1.1,0-2-0.9-2-2V26c0-1.1,0.9-2,2-2h14c1.1,0,2,0.9,2,2V40z"/>
</g>
<g>
	<path fill="#FDFCFB" d="M900,40c0,1.1-0.9,2-2,2h-14c-1.1,0-2-0.9-2-2V26c0-1.1,0.9-2,2-2h14c1.1,0,2,0.9,2,2V40z"/>
</g>
<g>
	<path fill="#FDFCFB" d="M878,40c0,1.1-0.9,2-2,2h-14c-1.1,0-2-0.9-2-2V26c0-1.1,0.9-2,2-2h14c1.1,0,2,0.9,2,2V40z"/>
</g>
<g>
	<path fill="#FDFCFB" d="M856,40c0,1.1-0.9,2-2,2h-14c-1.1,0-2-0.9-2-2V26c0-1.1,0.9-2,2-2h14c1.1,0,2,0.9,2,2V40z"/>
</g>
<g>
	<path fill="#FDFCFB" d="M834,40c0,1.1-0.9,2-2,2h-14c-1.1,0-2-0.9-2-2V26c0-1.1,0.9-2,2-2h14c1.1,0,2,0.9,2,2V40z"/>
</g>
<g>
	<path fill="#FDFCFB" d="M812,40c0,1.1-0.9,2-2,2h-14c-1.1,0-2-0.9-2-2V26c0-1.1,0.9-2,2-2h14c1.1,0,2,0.9,2,2V40z"/>
</g>
<g>
	<path fill="#FDFCFB" d="M790,40c0,1.1-0.9,2-2,2h-14c-1.1,0-2-0.9-2-2V26c0-1.1,0.9-2,2-2h14c1.1,0,2,0.9,2,2V40z"/>
</g>
<g>
	<path fill="#FDFCFB" d="M768,40c0,1.1-0.9,2-2,2h-14c-1.1,0-2-0.9-2-2V26c0-1.1,0.9-2,2-2h14c1.1,0,2,0.9,2,2V40z"/>
</g>
<g>
	<path fill="#FDFCFB" d="M746,40c0,1.1-0.9,2-2,2h-14c-1.1,0-2-0.9-2-2V26c0-1.1,0.9-2,2-2h14c1.1,0,2,0.9,2,2V40z"/>
</g>
<g>
	<path fill="#FDFCFB" d="M724,40c0,1.1-0.9,2-2,2h-14c-1.1,0-2-0.9-2-2V26c0-1.1,0.9-2,2-2h14c1.1,0,2,0.9,2,2V40z"/>
</g>
<g>
	<path fill="#FDFCFB" d="M702,40c0,1.1-0.9,2-2,2h-14c-1.1,0-2-0.9-2-2V26c0-1.1,0.9-2,2-2h14c1.1,0,2,0.9,2,2V40z"/>
</g>
<g>
	<path fill="#FDFCFB" d="M680,40c0,1.1-0.9,2-2,2h-14c-1.1,0-2-0.9-2-2V26c0-1.1,0.9-2,2-2h14c1.1,0,2,0.9,2,2V40z"/>
</g>
<g>
	<path fill="#FDFCFB" d="M658,40c0,1.1-0.9,2-2,2h-14c-1.1,0-2-0.9-2-2V26c0-1.1,0.9-2,2-2h14c1.1,0,2,0.9,2,2V40z"/>
</g>
<g>
	<path fill="#FDFCFB" d="M636,40c0,1.1-0.9,2-2,2h-14c-1.1,0-2-0.9-2-2V26c0-1.1,0.9-2,2-2h14c1.1,0,2,0.9,2,2V40z"/>
</g>
<g>
	<path fill="#FDFCFB" d="M614,40c0,1.1-0.9,2-2,2h-14c-1.1,0-2-0.9-2-2V26c0-1.1,0.9-2,2-2h14c1.1,0,2,0.9,2,2V40z"/>
</g>
<g>
	<path fill="#FDFCFB" d="M592,40c0,1.1-0.9,2-2,2h-14c-1.1,0-2-0.9-2-2V26c0-1.1,0.9-2,2-2h14c1.1,0,2,0.9,2,2V40z"/>
</g>
<g>
	<path fill="#FDFCFB" d="M570,40c0,1.1-0.9,2-2,2h-14c-1.1,0-2-0.9-2-2V26c0-1.1,0.9-2,2-2h14c1.1,0,2,0.9,2,2V40z"/>
</g>
<g>
	<path fill="#FDFCFB" d="M548,40c0,1.1-0.9,2-2,2h-14c-1.1,0-2-0.9-2-2V26c0-1.1,0.9-2,2-2h14c1.1,0,2,0.9,2,2V40z"/>
</g>
<g>
	<path fill="#FDFCFB" d="M526,40c0,1.1-0.9,2-2,2h-14c-1.1,0-2-0.9-2-2V26c0-1.1,0.9-2,2-2h14c1.1,0,2,0.9,2,2V40z"/>
</g>
<g>
	<path fill="#FDFCFB" d="M504,40c0,1.1-0.9,2-2,2h-14c-1.1,0-2-0.9-2-2V26c0-1.1,0.9-2,2-2h14c1.1,0,2,0.9,2,2V40z"/>
</g>
<g>
	<path fill="#FDFCFB" d="M482,40c0,1.1-0.9,2-2,2h-14c-1.1,0-2-0.9-2-2V26c0-1.1,0.9-2,2-2h14c1.1,0,2,0.9,2,2V40z"/>
</g>
<g>
	<path fill="#FDFCFB" d="M460,40c0,1.1-0.9,2-2,2h-14c-1.1,0-2-0.9-2-2V26c0-1.1,0.9-2,2-2h14c1.1,0,2,0.9,2,2V40z"/>
</g>
<g>
	<path fill="#FDFCFB" d="M438,40c0,1.1-0.9,2-2,2h-14c-1.1,0-2-0.9-2-2V26c0-1.1,0.9-2,2-2h14c1.1,0,2,0.9,2,2V40z"/>
</g>
<g>
	<path fill="#FDFCFB" d="M416,40c0,1.1-0.9,2-2,2h-14c-1.1,0-2-0.9-2-2V26c0-1.1,0.9-2,2-2h14c1.1,0,2,0.9,2,2V40z"/>
</g>
<g>
	<path fill="#FDFCFB" d="M394,40c0,1.1-0.9,2-2,2h-14c-1.1,0-2-0.9-2-2V26c0-1.1,0.9-2,2-2h14c1.1,0,2,0.9,2,2V40z"/>
</g>
<g>
	<path fill="#FDFCFB" d="M372,40c0,1.1-0.9,2-2,2h-14c-1.1,0-2-0.9-2-2V26c0-1.1,0.9-2,2-2h14c1.1,0,2,0.9,2,2V40z"/>
</g>
<g>
	<path fill="#FDFCFB" d="M350,40c0,1.1-0.9,2-2,2h-14c-1.1,0-2-0.9-2-2V26c0-1.1,0.9-2,2-2h14c1.1,0,2,0.9,2,2V40z"/>
</g>
<g>
	<path fill="#FDFCFB" d="M328,40c0,1.1-0.9,2-2,2h-14c-1.1,0-2-0.9-2-2V26c0-1.1,0.9-2,2-2h14c1.1,0,2,0.9,2,2V40z"/>
</g>
<g>
	<path fill="#FDFCFB" d="M306,40c0,1.1-0.9,2-2,2h-14c-1.1,0-2-0.9-2-2V26c0-1.1,0.9-2,2-2h14c1.1,0,2,0.9,2,2V40z"/>
</g>
<g>
	<path fill="#FDFCFB" d="M284,40c0,1.1-0.9,2-2,2h-14c-1.1,0-2-0.9-2-2V26c0-1.1,0.9-2,2-2h14c1.1,0,2,0.9,2,2V40z"/>
</g>
<g>
	<path fill="#FDFCFB" d="M262,40c0,1.1-0.9,2-2,2h-14c-1.1,0-2-0.9-2-2V26c0-1.1,0.9-2,2-2h14c1.1,0,2,0.9,2,2V40z"/>
</g>
<g>
	<path fill="#FDFCFB" d="M240,40c0,1.1-0.9,2-2,2h-14c-1.1,0-2-0.9-2-2V26c0-1.1,0.9-2,2-2h14c1.1,0,2,0.9,2,2V40z"/>
</g>
<g>
	<path fill="#FDFCFB" d="M218,40c0,1.1-0.9,2-2,2h-14c-1.1,0-2-0.9-2-2V26c0-1.1,0.9-2,2-2h14c1.1,0,2,0.9,2,2V40z"/>
</g>
<g>
	<path fill="#FDFCFB" d="M196,40c0,1.1-0.9,2-2,2h-14c-1.1,0-2-0.9-2-2V26c0-1.1,0.9-2,2-2h14c1.1,0,2,0.9,2,2V40z"/>
</g>
<g>
	<path fill="#FDFCFB" d="M174,40c0,1.1-0.9,2-2,2h-14c-1.1,0-2-0.9-2-2V26c0-1.1,0.9-2,2-2h14c1.1,0,2,0.9,2,2V40z"/>
</g>
<g>
	<path fill="#FDFCFB" d="M152,40c0,1.1-0.9,2-2,2h-14c-1.1,0-2-0.9-2-2V26c0-1.1,0.9-2,2-2h14c1.1,0,2,0.9,2,2V40z"/>
</g>
<g>
	<path fill="#F3F4F2" d="M130,40c0,1.1-0.9,2-2,2h-14c-1.1,0-2-0.9-2-2V26c0-1.1,0.9-2,2-2h14c1.1,0,2,0.9,2,2V40z"/>
</g>
<g>
	<path fill="#FDFCFB" d="M108,40c0,1.1-0.9,2-2,2H92c-1.1,0-2-0.9-2-2V26c0-1.1,0.9-2,2-2h14c1.1,0,2,0.9,2,2V40z"/>
</g>
<g>
	<path fill="#FDFCFB" d="M86,40c0,1.1-0.9,2-2,2H70c-1.1,0-2-0.9-2-2V26c0-1.1,0.9-2,2-2h14c1.1,0,2,0.9,2,2V40z"/>
</g>
<g>
	<path fill="#FDFCFB" d="M64,40c0,1.1-0.9,2-2,2H48c-1.1,0-2-0.9-2-2V26c0-1.1,0.9-2,2-2h14c1.1,0,2,0.9,2,2V40z"/>
</g>
<g>
	<path fill="#FDFCFB" d="M42,40c0,1.1-0.9,2-2,2H26c-1.1,0-2-0.9-2-2V26c0-1.1,0.9-2,2-2h14c1.1,0,2,0.9,2,2V40z"/>
</g>
<g>
	<path fill="#FDFCFB" d="M20,40c0,1.1-0.9,2-2,2H4c-1.1,0-2-0.9-2-2V26c0-1.1,0.9-2,2-2h14c1.1,0,2,0.9,2,2V40z"/>
</g>
<g>
	<path fill="#FDFCFB" d="M1120,18c0,1.1-0.9,2-2,2h-14c-1.1,0-2-0.9-2-2V4c0-1.1,0.9-2,2-2h14c1.1,0,2,0.9,2,2V18z"/>
</g>
<g>
	<path fill="#FDFCFB" d="M1098,18c0,1.1-0.9,2-2,2h-14c-1.1,0-2-0.9-2-2V4c0-1.1,0.9-2,2-2h14c1.1,0,2,0.9,2,2V18z"/>
</g>
<g>
	<path fill="#FDFCFB" d="M1076,18c0,1.1-0.9,2-2,2h-14c-1.1,0-2-0.9-2-2V4c0-1.1,0.9-2,2-2h14c1.1,0,2,0.9,2,2V18z"/>
</g>
<g>
	<path fill="#FDFCFB" d="M1054,18c0,1.1-0.9,2-2,2h-14c-1.1,0-2-0.9-2-2V4c0-1.1,0.9-2,2-2h14c1.1,0,2,0.9,2,2V18z"/>
</g>
<g>
	<path fill="#FDFCFB" d="M1032,18c0,1.1-0.9,2-2,2h-14c-1.1,0-2-0.9-2-2V4c0-1.1,0.9-2,2-2h14c1.1,0,2,0.9,2,2V18z"/>
</g>
<g>
	<path fill="#E3E5E2" d="M1010,18c0,1.1-0.9,2-2,2h-14c-1.1,0-2-0.9-2-2V4c0-1.1,0.9-2,2-2h14c1.1,0,2,0.9,2,2V18z"/>
</g>
<g>
	<path fill="#FDFCFB" d="M988,18c0,1.1-0.9,2-2,2h-14c-1.1,0-2-0.9-2-2V4c0-1.1,0.9-2,2-2h14c1.1,0,2,0.9,2,2V18z"/>
</g>
<g>
	<path fill="#FDFCFB" d="M966,18c0,1.1-0.9,2-2,2h-14c-1.1,0-2-0.9-2-2V4c0-1.1,0.9-2,2-2h14c1.1,0,2,0.9,2,2V18z"/>
</g>
<g>
	<path fill="#FDFCFB" d="M944,18c0,1.1-0.9,2-2,2h-14c-1.1,0-2-0.9-2-2V4c0-1.1,0.9-2,2-2h14c1.1,0,2,0.9,2,2V18z"/>
</g>
<g>
	<path fill="#FDFCFB" d="M922,18c0,1.1-0.9,2-2,2h-14c-1.1,0-2-0.9-2-2V4c0-1.1,0.9-2,2-2h14c1.1,0,2,0.9,2,2V18z"/>
</g>
<g>
	<path fill="#FDFCFB" d="M900,18c0,1.1-0.9,2-2,2h-14c-1.1,0-2-0.9-2-2V4c0-1.1,0.9-2,2-2h14c1.1,0,2,0.9,2,2V18z"/>
</g>
<g>
	<path fill="#FDFCFB" d="M878,18c0,1.1-0.9,2-2,2h-14c-1.1,0-2-0.9-2-2V4c0-1.1,0.9-2,2-2h14c1.1,0,2,0.9,2,2V18z"/>
</g>
<g>
	<path fill="#FDFCFB" d="M856,18c0,1.1-0.9,2-2,2h-14c-1.1,0-2-0.9-2-2V4c0-1.1,0.9-2,2-2h14c1.1,0,2,0.9,2,2V18z"/>
</g>
<g>
	<path fill="#FDFCFB" d="M834,18c0,1.1-0.9,2-2,2h-14c-1.1,0-2-0.9-2-2V4c0-1.1,0.9-2,2-2h14c1.1,0,2,0.9,2,2V18z"/>
</g>
<g>
	<path fill="#FDFCFB" d="M812,18c0,1.1-0.9,2-2,2h-14c-1.1,0-2-0.9-2-2V4c0-1.1,0.9-2,2-2h14c1.1,0,2,0.9,2,2V18z"/>
</g>
<g>
	<path fill="#FDFCFB" d="M790,18c0,1.1-0.9,2-2,2h-14c-1.1,0-2-0.9-2-2V4c0-1.1,0.9-2,2-2h14c1.1,0,2,0.9,2,2V18z"/>
</g>
<g>
	<path fill="#FDFCFB" d="M768,18c0,1.1-0.9,2-2,2h-14c-1.1,0-2-0.9-2-2V4c0-1.1,0.9-2,2-2h14c1.1,0,2,0.9,2,2V18z"/>
</g>
<g>
	<path fill="#FDFCFB" d="M746,18c0,1.1-0.9,2-2,2h-14c-1.1,0-2-0.9-2-2V4c0-1.1,0.9-2,2-2h14c1.1,0,2,0.9,2,2V18z"/>
</g>
<g>
	<path fill="#FDFCFB" d="M724,18c0,1.1-0.9,2-2,2h-14c-1.1,0-2-0.9-2-2V4c0-1.1,0.9-2,2-2h14c1.1,0,2,0.9,2,2V18z"/>
</g>
<g>
	<path fill="#FDFCFB" d="M702,18c0,1.1-0.9,2-2,2h-14c-1.1,0-2-0.9-2-2V4c0-1.1,0.9-2,2-2h14c1.1,0,2,0.9,2,2V18z"/>
</g>
<g>
	<path fill="#F3F4F2" d="M680,18c0,1.1-0.9,2-2,2h-14c-1.1,0-2-0.9-2-2V4c0-1.1,0.9-2,2-2h14c1.1,0,2,0.9,2,2V18z"/>
</g>
<g>
	<path fill="#FDFCFB" d="M658,18c0,1.1-0.9,2-2,2h-14c-1.1,0-2-0.9-2-2V4c0-1.1,0.9-2,2-2h14c1.1,0,2,0.9,2,2V18z"/>
</g>
<g>
	<path fill="#FDFCFB" d="M636,18c0,1.1-0.9,2-2,2h-14c-1.1,0-2-0.9-2-2V4c0-1.1,0.9-2,2-2h14c1.1,0,2,0.9,2,2V18z"/>
</g>
<g>
	<path fill="#FDFCFB" d="M614,18c0,1.1-0.9,2-2,2h-14c-1.1,0-2-0.9-2-2V4c0-1.1,0.9-2,2-2h14c1.1,0,2,0.9,2,2V18z"/>
</g>
<g>
	<path fill="#FDFCFB" d="M592,18c0,1.1-0.9,2-2,2h-14c-1.1,0-2-0.9-2-2V4c0-1.1,0.9-2,2-2h14c1.1,0,2,0.9,2,2V18z"/>
</g>
<g>
	<path fill="#FDFCFB" d="M570,18c0,1.1-0.9,2-2,2h-14c-1.1,0-2-0.9-2-2V4c0-1.1,0.9-2,2-2h14c1.1,0,2,0.9,2,2V18z"/>
</g>
<g>
	<path fill="#FDFCFB" d="M548,18c0,1.1-0.9,2-2,2h-14c-1.1,0-2-0.9-2-2V4c0-1.1,0.9-2,2-2h14c1.1,0,2,0.9,2,2V18z"/>
</g>
<g>
	<path fill="#FDFCFB" d="M526,18c0,1.1-0.9,2-2,2h-14c-1.1,0-2-0.9-2-2V4c0-1.1,0.9-2,2-2h14c1.1,0,2,0.9,2,2V18z"/>
</g>
<g>
	<path fill="#FDFCFB" d="M504,18c0,1.1-0.9,2-2,2h-14c-1.1,0-2-0.9-2-2V4c0-1.1,0.9-2,2-2h14c1.1,0,2,0.9,2,2V18z"/>
</g>
<g>
	<path fill="#FDFCFB" d="M482,18c0,1.1-0.9,2-2,2h-14c-1.1,0-2-0.9-2-2V4c0-1.1,0.9-2,2-2h14c1.1,0,2,0.9,2,2V18z"/>
</g>
<g>
	<path fill="#FDFCFB" d="M460,18c0,1.1-0.9,2-2,2h-14c-1.1,0-2-0.9-2-2V4c0-1.1,0.9-2,2-2h14c1.1,0,2,0.9,2,2V18z"/>
</g>
<g>
	<path fill="#FDFCFB" d="M438,18c0,1.1-0.9,2-2,2h-14c-1.1,0-2-0.9-2-2V4c0-1.1,0.9-2,2-2h14c1.1,0,2,0.9,2,2V18z"/>
</g>
<g>
	<path fill="#FDFCFB" d="M416,18c0,1.1-0.9,2-2,2h-14c-1.1,0-2-0.9-2-2V4c0-1.1,0.9-2,2-2h14c1.1,0,2,0.9,2,2V18z"/>
</g>
<g>
	<path fill="#FDFCFB" d="M394,18c0,1.1-0.9,2-2,2h-14c-1.1,0-2-0.9-2-2V4c0-1.1,0.9-2,2-2h14c1.1,0,2,0.9,2,2V18z"/>
</g>
<g>
	<path fill="#FDFCFB" d="M372,18c0,1.1-0.9,2-2,2h-14c-1.1,0-2-0.9-2-2V4c0-1.1,0.9-2,2-2h14c1.1,0,2,0.9,2,2V18z"/>
</g>
<g>
	<path fill="#FDFCFB" d="M350,18c0,1.1-0.9,2-2,2h-14c-1.1,0-2-0.9-2-2V4c0-1.1,0.9-2,2-2h14c1.1,0,2,0.9,2,2V18z"/>
</g>
<g>
	<path fill="#FDFCFB" d="M328,18c0,1.1-0.9,2-2,2h-14c-1.1,0-2-0.9-2-2V4c0-1.1,0.9-2,2-2h14c1.1,0,2,0.9,2,2V18z"/>
</g>
<g>
	<path fill="#FDFCFB" d="M306,18c0,1.1-0.9,2-2,2h-14c-1.1,0-2-0.9-2-2V4c0-1.1,0.9-2,2-2h14c1.1,0,2,0.9,2,2V18z"/>
</g>
<g>
	<path fill="#FDFCFB" d="M284,18c0,1.1-0.9,2-2,2h-14c-1.1,0-2-0.9-2-2V4c0-1.1,0.9-2,2-2h14c1.1,0,2,0.9,2,2V18z"/>
</g>
<g>
	<path fill="#FDFCFB" d="M262,18c0,1.1-0.9,2-2,2h-14c-1.1,0-2-0.9-2-2V4c0-1.1,0.9-2,2-2h14c1.1,0,2,0.9,2,2V18z"/>
</g>
<g>
	<path fill="#FDFCFB" d="M240,18c0,1.1-0.9,2-2,2h-14c-1.1,0-2-0.9-2-2V4c0-1.1,0.9-2,2-2h14c1.1,0,2,0.9,2,2V18z"/>
</g>
<g>
	<path fill="#FDFCFB" d="M218,18c0,1.1-0.9,2-2,2h-14c-1.1,0-2-0.9-2-2V4c0-1.1,0.9-2,2-2h14c1.1,0,2,0.9,2,2V18z"/>
</g>
<g>
	<path fill="#FDFCFB" d="M196,18c0,1.1-0.9,2-2,2h-14c-1.1,0-2-0.9-2-2V4c0-1.1,0.9-2,2-2h14c1.1,0,2,0.9,2,2V18z"/>
</g>
<g>
	<path fill="#FDFCFB" d="M174,18c0,1.1-0.9,2-2,2h-14c-1.1,0-2-0.9-2-2V4c0-1.1,0.9-2,2-2h14c1.1,0,2,0.9,2,2V18z"/>
</g>
<g>
	<path fill="#FDFCFB" d="M152,18c0,1.1-0.9,2-2,2h-14c-1.1,0-2-0.9-2-2V4c0-1.1,0.9-2,2-2h14c1.1,0,2,0.9,2,2V18z"/>
</g>
<g>
	<path fill="#FDFCFB" d="M130,18c0,1.1-0.9,2-2,2h-14c-1.1,0-2-0.9-2-2V4c0-1.1,0.9-2,2-2h14c1.1,0,2,0.9,2,2V18z"/>
</g>
<g>
	<path fill="#FDFCFB" d="M108,18c0,1.1-0.9,2-2,2H92c-1.1,0-2-0.9-2-2V4c0-1.1,0.9-2,2-2h14c1.1,0,2,0.9,2,2V18z"/>
</g>
<g>
	<path fill="#FDFCFB" d="M86,18c0,1.1-0.9,2-2,2H70c-1.1,0-2-0.9-2-2V4c0-1.1,0.9-2,2-2h14c1.1,0,2,0.9,2,2V18z"/>
</g>
<g>
	<path fill="#FDFCFB" d="M64,18c0,1.1-0.9,2-2,2H48c-1.1,0-2-0.9-2-2V4c0-1.1,0.9-2,2-2h14c1.1,0,2,0.9,2,2V18z"/>
</g>
<g>
	<path fill="#FDFCFB" d="M42,18c0,1.1-0.9,2-2,2H26c-1.1,0-2-0.9-2-2V4c0-1.1,0.9-2,2-2h14c1.1,0,2,0.9,2,2V18z"/>
</g>
<g>
	<path fill="#FDFCFB" d="M20,18c0,1.1-0.9,2-2,2H4c-1.1,0-2-0.9-2-2V4c0-1.1,0.9-2,2-2h14c1.1,0,2,0.9,2,2V18z"/>
</g>
<g>
</g>
<g>
</g>
<g>
</g>
<g>
</g>
<g>
</g>
<g>
</g>
</svg>
