<?xml version="1.0" encoding="UTF-8" standalone="no"?>
<svg width="15px" height="15px" viewBox="0 0 15 15" version="1.1" xmlns="http://www.w3.org/2000/svg" xmlns:xlink="http://www.w3.org/1999/xlink" xmlns:sketch="http://www.bohemiancoding.com/sketch/ns">
    <!-- Generator: Sketch 3.4.4 (17249) - http://www.bohemiancoding.com/sketch -->
    <title>Viewer icon</title>
    <desc>Created with Sketch.</desc>
    <defs></defs>
    <g id="Welcome" stroke="none" stroke-width="1" fill="none" fill-rule="evenodd" sketch:type="MSPage">
        <g id="Desktop-HD" sketch:type="MSArtboardGroup" transform="translate(-1270.000000, -83.000000)" fill="#A1A7AD">
            <g id="Toolbar" sketch:type="MSLayerGroup" transform="translate(0.000000, 72.000000)">
                <g id="Show-in-Viewer" transform="translate(1270.000000, 11.000000)" sketch:type="MSShapeGroup">
                    <g id="Viewer-icon">
                        <path d="M13,2 L13,10 L5,10 L5,2 L13,2 L13,2 Z M15,-8.8817842e-16 L3,-8.8817842e-16 L3,12 L15,12 L15,-8.8817842e-16 Z M1,4 L2,4 L2,13 L1,13 L1,4 Z M11,13 L11,14 L1,14 L1,13 L11,13 Z M0,4 L1,4 L1,15 L0,15 L0,4 Z M11,14 L11,15 L1,15 L1,14 L11,14 Z" id="Shape"></path>
                    </g>
                </g>
            </g>
        </g>
    </g>
</svg>