<?xml version="1.0" encoding="UTF-8" standalone="no"?>
<svg width="13px" height="14px" viewBox="0 0 13 14" version="1.1" xmlns="http://www.w3.org/2000/svg" xmlns:xlink="http://www.w3.org/1999/xlink" xmlns:sketch="http://www.bohemiancoding.com/sketch/ns">
    <!-- Generator: Sketch 3.4.4 (17249) - http://www.bohemiancoding.com/sketch -->
    <title>Magnifying glass icon</title>
    <desc>Created with Sketch.</desc>
    <defs></defs>
    <g id="Welcome" stroke="none" stroke-width="1" fill="none" fill-rule="evenodd" sketch:type="MSPage">
        <g id="Desktop-HD" sketch:type="MSArtboardGroup" transform="translate(-17.000000, -84.000000)" fill="#47525E">
            <g id="Toolbar" sketch:type="MSLayerGroup" transform="translate(0.000000, 72.000000)">
                <g id="Find" transform="translate(17.000000, 10.000000)" sketch:type="MSShapeGroup">
                    <path d="M12.4906147,13.5816176 L8.62925048,9.72025333 C9.1511965,8.99998666 9.46335917,8.11751474 9.46335917,7.16155584 C9.46335917,7.11256452 9.45660716,7.0656145 9.44891301,7.01897853 C9.45676418,6.97171446 9.46351619,6.92397932 9.46351619,6.87420288 C9.46351619,4.46232234 7.50119385,2.5 5.0893133,2.5 C5.0464459,2.5 5.00514872,2.50675201 4.96385155,2.51256188 C4.92224033,2.50675201 4.8812572,2.5 4.8383898,2.5 C2.42635223,2.5 0.464029888,4.46232234 0.464029888,6.87420288 C0.464029888,6.92319421 0.470624874,6.97014423 0.478476047,7.01693722 C0.47046785,7.06420129 0.463872864,7.1117794 0.463872864,7.16155584 C0.463872864,9.57343638 2.42603818,11.5359157 4.83807575,11.5359157 C4.88094316,11.5359157 4.92208331,11.5291637 4.96369453,11.5231968 C5.0049917,11.5291637 5.04597483,11.5359157 5.08899926,11.5359157 C5.9067775,11.5359157 6.67038265,11.3060334 7.32579863,10.9136317 L11.2421211,14.8299542 C11.4146899,15.002523 11.6404896,15.0885718 11.8664464,15.0885718 C12.0924032,15.0885718 12.318517,15.0023659 12.4907717,14.8299542 C12.8354382,14.4852876 12.8354382,13.9264411 12.4906147,13.5816176 L12.4906147,13.5816176 Z M4.96369453,9.7829057 C4.92208331,9.7769388 4.88110018,9.77018679 4.83807575,9.77018679 C3.39974074,9.77018679 2.22960182,8.60004787 2.22960182,7.16171286 C2.22960182,7.11272154 2.22300683,7.06577152 2.21515566,7.01913555 C2.22316385,6.97187148 2.22975884,6.92413635 2.22975884,6.87435991 C2.22975884,5.4360249 3.40005478,4.26588598 4.8383898,4.26588598 C4.88110018,4.26588598 4.92224033,4.25929099 4.96385155,4.25348112 C5.00514872,4.25929099 5.04628887,4.26588598 5.0893133,4.26588598 C6.52764832,4.26588598 7.69778724,5.4360249 7.69778724,6.87435991 C7.69778724,6.92335123 7.70453925,6.97030125 7.7122334,7.01709424 C7.70438222,7.06435831 7.69747319,7.11193642 7.69747319,7.16171286 C7.69747319,8.60004787 6.52733427,9.77018679 5.08899926,9.77018679 C5.04597483,9.77018679 5.00483468,9.7769388 4.96369453,9.7829057 L4.96369453,9.7829057 Z" id="Magnifying-glass-icon"></path>
                </g>
            </g>
        </g>
    </g>
</svg>