<?xml version="1.0" encoding="UTF-8" standalone="no"?>
<svg width="35px" height="16px" viewBox="0 0 35 16" version="1.1" xmlns="http://www.w3.org/2000/svg" xmlns:xlink="http://www.w3.org/1999/xlink" xmlns:sketch="http://www.bohemiancoding.com/sketch/ns">
    <!-- Generator: Sketch 3.4.4 (17249) - http://www.bohemiancoding.com/sketch -->
    <title>Descending by count + Descending by count</title>
    <desc>Created with Sketch.</desc>
    <defs></defs>
    <g id="Welcome" stroke="none" stroke-width="1" fill="none" fill-rule="evenodd" sketch:type="MSPage">
        <g id="Desktop-HD" sketch:type="MSArtboardGroup" transform="translate(-246.000000, -125.000000)">
            <rect id="White-background" fill="#FFFFFF" sketch:type="MSShapeGroup" x="0" y="0" width="1440" height="1024"></rect>
            <g id="Control-bar" sketch:type="MSLayerGroup" transform="translate(40.000000, 108.000000)">
                <rect id="Control-bar-background" opacity="0.9" fill="#FFFFFF" sketch:type="MSShapeGroup" x="0" y="0" width="1417" height="48"></rect>
                <g id="Sort-order" transform="translate(168.315789, 16.000000)" sketch:type="MSShapeGroup">
                    <g id="Descending-by-count-+-Descending-by-count" transform="translate(37.447368, 1.000000)">
                        <g id="Descending-by-count" fill="#A1A7AD">
                            <g transform="translate(17.026316, 1.000000)" id="Rectangle-404">
                                <rect x="0" y="0" width="17.7631579" height="3"></rect>
                                <rect x="0" y="6" width="11.8421053" height="3"></rect>
                                <rect x="0" y="12" width="5.92105263" height="3"></rect>
                            </g>
                            <path d="M8.49788959,9.71930769 L8.38608741,0.778168849 L5.44072943,0.741491812 L5.55160597,9.68261913 L0.776503939,9.62292585 L7.10255105,15.948973 L13.2729859,9.77853815 L8.49788959,9.71930769 Z" id="Arrow"></path>
                        </g>
                        <g id="Descending-by-count" fill="#47535E">
                            <g transform="translate(17.026316, 1.000000)" id="Rectangle-404">
                                <rect x="0" y="0" width="17.7631579" height="3"></rect>
                                <rect x="0" y="6" width="11.8421053" height="3"></rect>
                                <rect x="0" y="12" width="5.92105263" height="3"></rect>
                            </g>
                            <path d="M8.49788959,9.71930769 L8.38608741,0.778168849 L5.44072943,0.741491812 L5.55160597,9.68261913 L0.776503939,9.62292585 L7.10255105,15.948973 L13.2729859,9.77853815 L8.49788959,9.71930769 Z" id="Arrow"></path>
                        </g>
                    </g>
                </g>
            </g>
        </g>
    </g>
</svg>