<?xml version="1.0" encoding="UTF-8" standalone="no"?>
<svg width="20px" height="20px" viewBox="0 0 20 20" version="1.1" xmlns="http://www.w3.org/2000/svg" xmlns:xlink="http://www.w3.org/1999/xlink" xmlns:sketch="http://www.bohemiancoding.com/sketch/ns">
    <!-- Generator: Sketch 3.4.4 (17249) - http://www.bohemiancoding.com/sketch -->
    <title>Fit icon</title>
    <desc>Created with Sketch.</desc>
    <defs></defs>
    <g id="Welcome" stroke="none" stroke-width="1" fill="none" fill-rule="evenodd" sketch:type="MSPage">
        <g id="Desktop-HD" sketch:type="MSArtboardGroup" transform="translate(-1374.000000, -870.000000)" fill="#47535E">
            <g id="Zoom-controls" sketch:type="MSLayerGroup" transform="translate(1368.000000, 864.000000)">
                <g id="Fit-to-page" sketch:type="MSShapeGroup">
                    <g id="Fit-icon" transform="translate(7.111111, 7.111111)">
                        <path d="M5.13303691,3.86076962 L1.27186758,0 L0,1.27186758 L3.86076962,5.13303691 L1.79868136,7.19492531 L7.19492531,7.19492531 L7.19492531,1.79868136 L5.13303691,3.86076962 Z" id="Arrow"></path>
                        <path d="M7.19492531,10.7926877 L1.79868136,10.7926877 L3.86076962,12.8545761 L0,16.7157455 L1.27186758,17.9876131 L5.13283705,14.1268434 L7.19492531,16.1889317 L7.19492531,10.7926877 Z" id="Arrow"></path>
                        <path d="M17.9876131,16.7157455 L14.1268434,12.854776 L16.1889317,10.7926877 L10.7926877,10.7926877 L10.7926877,16.1889317 L12.854776,14.1268434 L16.7157455,17.9876131 L17.9876131,16.7157455 Z" id="Arrow"></path>
                        <path d="M17.9876131,1.27186758 L16.7157455,0 L12.8545761,3.86076962 L10.7926877,1.79868136 L10.7926877,7.19492531 L16.1889317,7.19492531 L14.1268434,5.13303691 L17.9876131,1.27186758 Z" id="Arrow"></path>
                    </g>
                </g>
            </g>
        </g>
    </g>
</svg>